<?xml version="1.0" encoding="UTF-8"?>
<svg version="1.1" viewBox="0 0 1024 1024" xmlns="http://www.w3.org/2000/svg">
 <circle cx="512" cy="512" r="512" style="fill:#007377"/>
 <path d="m521.87 874.57c5.8179-2.7905 9.98-7.5378 11.757-13.408 1.3209-4.3664 1.3561-6.1073 1.1826-58.716l-0.17866-54.217-22.377-15.468c-12.307-8.5077-22.606-15.468-22.889-15.468-0.8681 0-0.62637 137.07 0.24895 141.2 1.0456 4.9333 2.8572 8.2655 6.4423 11.851 6.9324 6.9324 16.801 8.5475 25.814 4.2252zm59.216-73.51c24.378-10.406 44.074-26.33 52.079-42.105 3.401-6.7021 4.536-11.773 4.5428-20.298 0.01-9.0568-1.1313-13.619-5.5001-22.042-5.6646-10.92-19.694-25.953-32.521-34.849-3.7032-2.5684-36.107-24.956-72.008-49.751l-65.276-45.081v-36.847c0-21.227-0.25995-37.008-0.61308-37.227-1.1066-0.68393-14.448 4.3716-24.819 9.4052-26.449 12.837-42.757 28.235-48.89 46.167-2.5703 7.5149-2.7284 17.931-0.38602 25.432 4.3031 13.782 16.54 29.695 31.33 40.746 2.7826 2.0789 36.112 25.223 74.065 51.43l69.007 47.651v74.435l6.6124-2.3028c3.6368-1.2665 9.206-3.41 12.376-4.7634zm-46.125-243.65-0.01-45.269-22.141-15.259c-12.177-8.3929-22.553-15.358-23.056-15.48-0.76165-0.18353-0.88545 7.355-0.74015 45.092l0.17426 45.312 22.378 15.437c12.308 8.4905 22.607 15.437 22.889 15.437 0.28145 0 0.5081-20.371 0.5036-45.269zm35.405 11.634c9.7809-3.4121 25.995-11.458 34.597-17.168 8.1359-5.4005 18.049-14.457 23.056-21.066 8.8248-11.645 12.02-25.942 8.7014-38.924-3.4019-13.301-14.993-29.123-30.203-41.229-4.0598-3.2311-44.513-31.313-124.94-86.733l-19.149-13.193-0.01-37.131c-0.01-36.528-0.033-37.131-1.3511-37.131-2.0798 0-13.739 4.5-22.735 8.7748-42.226 20.064-60.17 48.045-49.144 76.634 4.4466 11.531 17.365 27.14 30.562 36.925 3.5805 2.6551 37.058 25.885 74.396 51.623l67.887 46.795 0.035 37.131c0.02 22.777 0.28204 37.131 0.67436 37.131 0.35163 0 3.785-1.0973 7.6296-2.4384zm-35.397-277.09v-74.72l4.6524-4.7987c7.6343-7.8742 11.137-16.446 11.1-27.166-0.055-16.201-10.044-30.368-25.586-36.287-2.9589-1.127-6.012-1.6367-11.19-1.8682-12.33-0.55148-20.41 2.5817-29.22 11.331-7.7738 7.7202-11.47 16.471-11.47 27.151 0 10.268 3.5906 19.038 10.913 26.658l4.6848 4.8744v118.22l22.549 15.623c12.402 8.5928 22.778 15.642 23.059 15.664 0.27974 0.0231 0.50869-33.582 0.50869-74.678zm39.486 34.089c34.859-8.9201 51.792-18.87 54.764-32.182 0.92489-4.142-0.45121-10.129-3.3675-14.652-4.0968-6.3537-23.363-23.748-30.036-27.117-2.1561-1.0888-5.6659-2.3431-7.7992-2.7874-4.414-0.91904-15.944-0.51981-22.021 0.76253l-3.8996 0.82296v38.902c0 33.803 0.13098 38.902 0.99848 38.902 0.54919 0 5.6611-1.193 11.359-2.6513z" style="fill:#fff"/>
</svg>
