<?xml version="1.0" encoding="UTF-8"?>
<svg id="Layer_1" xmlns="http://www.w3.org/2000/svg" version="1.1" viewBox="0 0 1024 1024">
  <!-- Generator: Adobe Illustrator 30.2.1, SVG Export Plug-In . SVG Version: 2.1.1 Build 1)  -->
  <defs>
    <style>
      .st0 {
        fill: #0c2a50;
      }

      .st1, .st2 {
        fill: #fff;
      }

      .st2 {
        fill-rule: evenodd;
      }
    </style>
  </defs>
  <circle id="Background__x28_CHANGE_THE_COLOR_x29_" class="st0" cx="512" cy="512" r="512"/>
  <g>
    <path class="st2" d="M180.55,752.09h-17.96l-2.05,4.88c-.77,1.54-1.03,3.08-1.03,4.11,0,1.54.51,2.57,1.8,3.08.77.51,2.31.77,4.88,1.03v1.28h-16.94v-1.28c1.8-.26,3.34-1.03,4.62-2.31s2.57-3.85,4.36-7.7l18.22-40.55h.77l18.48,41.83c1.8,3.85,3.08,6.42,4.36,7.44.77.77,2.05,1.28,3.59,1.28v1.28h-24.64v-1.28h1.03c2.05,0,3.34-.26,4.11-.77.51-.51.77-1.03.77-1.8,0-.51,0-1.03-.26-1.28,0-.26-.51-1.28-1.03-2.82l-3.08-6.42h0ZM179.26,749.27l-7.7-17.45-7.7,17.45h15.4Z"/>
    <path class="st1" d="M234.44,731.56v27.46c0,2.57.26,4.36.77,5.13.51.77,1.54,1.03,3.08,1.28v1.28h-14.37v-4.62c-1.8,2.05-3.34,3.59-5.13,4.36-1.8,1.03-3.59,1.28-5.65,1.28s-3.85-.51-5.39-1.8-2.57-2.57-3.08-4.36c-.51-1.54-.77-4.36-.77-8.47v-13.86c0-2.57-.26-4.36-.77-4.88-.51-.77-1.54-1.03-3.08-1.28v-1.54h14.37v24.12c0,2.57,0,4.11.26,4.88.26.77.51,1.28,1.03,1.54s1.03.51,1.8.51c1.03,0,1.8-.26,2.57-.77,1.03-.77,2.31-2.05,3.59-3.85v-18.73c0-2.57-.26-4.36-.77-4.88-.51-.77-1.54-1.03-3.08-1.28v-1.54h14.63Z"/>
    <path class="st1" d="M262.93,730.53l.51,12.06h-1.28c-1.54-3.59-3.08-5.9-4.88-7.19-1.54-1.28-3.34-2.05-4.88-2.05-1.03,0-1.8.26-2.57,1.03-.77.77-1.03,1.54-1.03,2.31s.26,1.28.77,2.05c.77,1.03,3.08,2.82,6.67,5.39s6.16,4.62,7.19,6.42c1.28,1.8,1.8,3.59,1.8,5.9,0,2.05-.51,3.85-1.54,5.65s-2.31,3.34-4.11,4.36-3.85,1.54-5.9,1.54c-1.8,0-3.85-.51-6.67-1.54-.77-.26-1.28-.51-1.54-.51-.77,0-1.54.51-2.05,1.8h-1.28l-.51-12.58h1.28c1.03,3.34,2.57,5.9,4.62,7.44,2.05,1.54,3.85,2.57,5.65,2.57,1.28,0,2.05-.26,2.82-1.03.77-.77,1.28-1.54,1.28-2.82s-.26-2.31-1.03-3.08-2.31-2.31-5.13-4.11c-3.85-2.57-6.42-4.62-7.44-6.16-1.54-2.05-2.57-4.36-2.57-6.67,0-2.82,1.03-5.13,2.82-7.44s4.62-3.34,8.21-3.34c1.8,0,3.85.51,5.65,1.28.77.26,1.28.51,1.54.51.51,0,.77,0,1.03-.26s.77-.77,1.28-1.54h1.28Z"/>
    <path class="st1" d="M281.41,718.47v12.83h8.21v3.59h-8.21v21.56c0,2.05,0,3.34.26,3.85s.51,1.03,1.03,1.54c.51.26,1.03.51,1.28.51,1.54,0,3.08-1.28,4.62-3.59l1.03.77c-2.05,4.88-5.39,7.19-9.75,7.19-2.31,0-4.11-.51-5.65-1.8s-2.57-2.57-2.82-4.11c-.26-.77-.26-3.08-.26-6.93v-18.99h-4.62v-1.28c3.08-2.31,5.9-4.62,7.96-6.93,2.31-2.57,4.11-5.13,5.9-8.21h1.03Z"/>
    <path class="st1" d="M307.07,731.56v7.96c2.31-3.59,4.36-6.16,6.16-7.19,1.8-1.28,3.34-1.8,5.13-1.8,1.28,0,2.57.51,3.34,1.28s1.28,2.05,1.28,3.59c0,1.8-.51,3.08-1.28,3.85-.77,1.03-1.8,1.28-2.82,1.28-1.28,0-2.57-.51-3.34-1.28-1.03-.77-1.54-1.28-1.8-1.54s-.51-.26-.77-.26c-.77,0-1.54.26-2.05.77-1.03.77-1.8,2.05-2.31,3.59-.77,2.31-1.28,5.13-1.28,7.96v10.01c0,1.54,0,2.31.26,2.82.26.77.77,1.28,1.28,1.54s1.54.51,3.08.51v1.28h-18.99v-1.28c1.54,0,2.57-.51,3.08-1.28s.77-2.57.77-5.65v-19.5c0-2.05,0-3.34-.26-3.85-.26-.77-.51-1.28-1.03-1.54-.51-.26-1.28-.51-2.57-.77v-.51h14.12Z"/>
    <path class="st2" d="M342.23,761.33c-4.36,3.85-8.21,5.65-11.55,5.65-2.05,0-3.59-.77-4.88-2.05s-2.05-3.08-2.05-4.88c0-2.57,1.03-5.13,3.34-7.19s7.44-5.13,15.14-8.47v-3.59c0-2.57-.26-4.36-.51-4.88-.26-.77-.77-1.28-1.54-1.8-.77-.51-1.8-.77-2.82-.77-1.54,0-3.08.26-4.11,1.03-.77.51-1.03,1.03-1.03,1.54s.26,1.28,1.03,2.05c1.03,1.03,1.54,2.05,1.54,3.08,0,1.28-.51,2.31-1.28,3.08-1.03.77-2.05,1.28-3.59,1.28s-2.82-.51-4.11-1.54c-1.03-1.03-1.54-2.05-1.54-3.34,0-1.8.77-3.59,2.05-5.13,1.54-1.54,3.34-2.82,5.9-3.85,2.57-.77,5.13-1.28,7.96-1.28,3.34,0,5.9.77,7.96,2.05,2.05,1.28,3.34,2.82,3.85,4.62.26,1.03.51,3.59.51,7.19v13.6c0,1.54,0,2.57.26,3.08,0,.51.26.77.51,1.03.26.26.51.26.77.26.77,0,1.28-.51,2.05-1.28l1.03,1.03c-1.28,1.8-2.57,3.08-3.85,4.11-1.28.77-2.82,1.28-4.62,1.28-2.05,0-3.59-.51-4.62-1.28-1.03-1.28-1.54-2.57-1.8-4.62h0ZM342.23,758.76v-11.81c-3.08,1.8-5.39,3.59-6.67,5.65-1.03,1.28-1.54,2.82-1.54,4.11,0,1.03.51,2.05,1.28,3.08.51.77,1.54,1.03,2.57,1.03s2.57-.77,4.36-2.05h0Z"/>
    <path class="st1" d="M372.77,715.65v43.63c0,2.57.26,4.11.77,4.88.51.77,1.8,1.03,3.34,1.28v1.28h-18.99v-1.28c1.54,0,2.82-.51,3.34-1.28.51-.51.77-2.05.77-4.62v-36.44c0-2.57-.26-4.11-.77-4.62-.51-.77-1.8-1.03-3.34-1.28v-1.28h14.89v-.26Z"/>
    <path class="st2" d="M388.68,714.36c1.54,0,3.08.51,4.11,1.8,1.03,1.03,1.8,2.57,1.8,4.11s-.51,3.08-1.8,4.11c-1.03,1.03-2.57,1.8-4.11,1.8s-3.08-.51-4.11-1.8c-1.03-1.03-1.8-2.57-1.8-4.11s.51-3.08,1.8-4.11c1.28-1.28,2.57-1.8,4.11-1.8h0ZM394.07,731.56v27.72c0,2.57.26,4.11.77,4.88.51.77,1.8,1.03,3.34,1.28v1.28h-18.99v-1.28c1.54,0,2.82-.51,3.34-1.28.51-.51.77-2.05.77-4.62v-20.53c0-2.57-.26-4.11-.77-4.62-.51-.77-1.8-1.03-3.34-1.28v-1.54h14.89Z"/>
    <path class="st2" d="M418.71,761.33c-4.36,3.85-8.21,5.65-11.55,5.65-2.05,0-3.59-.77-4.88-2.05s-2.05-3.08-2.05-4.88c0-2.57,1.03-5.13,3.34-7.19,2.31-2.05,7.44-5.13,15.14-8.47v-3.59c0-2.57-.26-4.36-.51-4.88-.26-.77-.77-1.28-1.54-1.8s-1.8-.77-2.82-.77c-1.54,0-3.08.26-4.11,1.03-.77.51-1.03,1.03-1.03,1.54s.26,1.28,1.03,2.05c1.03,1.03,1.54,2.05,1.54,3.08,0,1.28-.51,2.31-1.28,3.08-1.03.77-2.05,1.28-3.59,1.28s-2.82-.51-4.11-1.54c-1.03-1.03-1.54-2.05-1.54-3.34,0-1.8.77-3.59,2.05-5.13,1.54-1.54,3.34-2.82,5.9-3.85,2.57-.77,5.13-1.28,7.96-1.28,3.34,0,5.9.77,7.96,2.05s3.34,2.82,3.85,4.62c.26,1.03.51,3.59.51,7.19v13.6c0,1.54,0,2.57.26,3.08,0,.51.26.77.51,1.03s.51.26.77.26c.77,0,1.28-.51,2.05-1.28l1.03,1.03c-1.28,1.8-2.57,3.08-3.85,4.11-1.28.77-2.82,1.28-4.62,1.28-2.05,0-3.59-.51-4.62-1.28-.77-1.28-1.54-2.57-1.8-4.62h0ZM418.71,758.76v-11.81c-3.08,1.8-5.39,3.59-6.67,5.65-1.03,1.28-1.54,2.82-1.54,4.11,0,1.03.51,2.05,1.28,3.08.51.77,1.54,1.03,2.57,1.03,1.28,0,2.82-.77,4.36-2.05h0Z"/>
    <path class="st1" d="M448.99,731.56v4.62c1.8-2.05,3.59-3.34,5.13-4.36s3.34-1.28,5.39-1.28c2.31,0,4.11.51,5.65,1.8,1.54,1.28,2.57,2.82,3.08,4.62.51,1.54.51,4.11.51,8.21v13.6c0,2.82.26,4.36.77,5.13s1.54,1.03,3.08,1.28v1.28h-17.71v-1.28c1.28-.26,2.31-.77,2.82-1.54.51-.51.51-2.05.51-4.62v-15.66c0-2.82,0-4.62-.26-5.39s-.51-1.28-1.28-1.8c-.51-.51-1.03-.51-1.8-.51-2.05,0-4.11,1.54-5.9,4.62v18.73c0,2.57.26,4.36.77,4.88.51.77,1.54,1.03,2.82,1.28v1.28h-17.71v-1.28c1.54-.26,2.57-.51,3.08-1.54.51-.51.51-2.05.51-4.88v-19.76c0-2.57-.26-4.36-.77-4.88-.51-.77-1.54-1.03-3.08-1.28v-1.28h14.37Z"/>
    <path class="st1" d="M541.9,714.36v17.96h-1.28c-1.8-4.88-4.11-8.73-7.44-11.29-3.34-2.57-6.93-3.85-11.04-3.85-3.85,0-6.93,1.03-9.5,3.34-2.57,2.05-4.36,5.13-5.39,8.98-1.03,3.85-1.54,7.7-1.54,11.81,0,4.88.51,9.24,1.8,12.83s3.08,6.42,5.65,8.21,5.65,2.57,9.24,2.57c1.28,0,2.57,0,3.85-.26s2.57-.77,4.11-1.28v-10.52c0-2.05-.26-3.34-.51-3.85-.26-.51-.77-1.03-1.8-1.54-.77-.51-1.8-.77-3.08-.77h-1.8v-1.28h24.64v1.28c-1.8,0-3.08.51-3.85.77s-1.28,1.03-1.8,1.8c-.26.51-.26,1.54-.26,3.59v10.52c-3.34,1.54-6.67,2.57-10.27,3.34s-7.19,1.03-11.04,1.03c-4.88,0-8.73-.77-12.06-2.05-3.08-1.28-5.9-3.08-8.47-5.13-2.31-2.05-4.36-4.62-5.65-7.19-1.8-3.34-2.57-7.44-2.57-11.55,0-7.7,2.57-14.12,7.96-19.5s12.06-7.96,20.27-7.96c2.57,0,4.88.26,6.93.51,1.03.26,2.82.77,5.39,1.8s3.85,1.28,4.36,1.28c.77,0,1.28-.26,2.05-.77.51-.51,1.03-1.54,1.54-2.82h1.54Z"/>
    <path class="st2" d="M566.28,730.27c3.08,0,5.9.77,8.47,2.31,2.57,1.54,4.62,3.85,5.9,6.67s2.05,6.16,2.05,9.5c0,4.88-1.28,9.24-3.85,12.58-3.08,4.11-7.19,6.16-12.58,6.16s-9.24-1.8-12.32-5.65c-2.82-3.59-4.36-7.96-4.36-12.83,0-5.13,1.54-9.5,4.36-13.09,3.08-3.59,7.19-5.65,12.32-5.65h0ZM566.28,733.1c-1.28,0-2.31.51-3.34,1.54s-1.54,2.82-1.8,5.65c-.26,2.82-.51,6.67-.51,11.81,0,2.57.26,5.13.51,7.44.26,1.8.77,3.08,1.8,4.11,1.03,1.03,2.05,1.28,3.08,1.28s2.05-.26,2.82-1.03c1.03-.77,1.54-2.05,2.05-3.59.51-2.31.77-7.19.77-14.37,0-4.36-.26-7.19-.77-8.73-.51-1.54-1.28-2.82-2.05-3.59-.51-.26-1.54-.51-2.57-.51h0Z"/>
    <path class="st1" d="M599.39,767.49l-11.81-27.2c-1.54-3.34-2.57-5.39-3.34-6.16-.51-.77-1.54-1.03-2.57-1.28v-1.28h18.73v1.28c-1.28,0-2.05.26-2.31.51-.51.51-1.03,1.28-1.03,2.05,0,1.03.51,2.57,1.54,5.13l5.9,13.09,4.62-11.29c1.28-3.34,2.05-5.65,2.05-6.93,0-.77-.26-1.28-.77-1.8s-1.54-.77-3.08-.77v-1.28h11.55v1.28c-1.03.26-2.05.51-2.82,1.28s-1.8,2.57-3.08,5.9l-11.81,27.46h-1.8Z"/>
    <path class="st2" d="M646.35,747.73h-19.25c.26,4.62,1.54,8.21,3.59,11.04,1.8,2.05,3.85,3.08,6.16,3.08,1.54,0,2.82-.51,4.11-1.28s2.57-2.31,3.85-4.62l1.28.77c-1.8,3.85-4.11,6.67-6.42,8.21-2.31,1.54-4.88,2.31-7.96,2.31-5.13,0-9.24-2.05-11.81-5.9-2.05-3.34-3.34-7.19-3.34-12.06,0-5.9,1.54-10.52,4.62-13.86,3.08-3.59,6.93-5.13,11.04-5.13,3.59,0,6.67,1.54,9.24,4.36,3.34,3.08,4.62,7.44,4.88,13.09h0ZM637.11,745.16c0-4.11-.26-6.67-.77-8.21-.51-1.54-1.03-2.57-2.05-3.34-.51-.51-1.28-.77-2.05-.77-1.28,0-2.31.51-3.08,1.8-1.54,2.31-2.31,5.39-2.31,9.24v1.28h10.27Z"/>
    <path class="st1" d="M663.03,731.56v7.96c2.31-3.59,4.36-6.16,6.16-7.19,1.8-1.28,3.34-1.8,5.13-1.8,1.28,0,2.57.51,3.34,1.28s1.28,2.05,1.28,3.59c0,1.8-.51,3.08-1.28,3.85-.77,1.03-1.8,1.28-2.82,1.28-1.28,0-2.57-.51-3.34-1.28-1.03-.77-1.54-1.28-1.8-1.54-.26-.26-.51-.26-.77-.26-.77,0-1.54.26-2.05.77-1.03.77-1.8,2.05-2.31,3.59-.77,2.31-1.28,5.13-1.28,7.96v10.01c0,1.54,0,2.31.26,2.82.26.77.77,1.28,1.28,1.54s1.54.51,3.08.51v1.28h-18.99v-1.28c1.54,0,2.57-.51,3.08-1.28s.77-2.57.77-5.65v-19.5c0-2.05,0-3.34-.26-3.85-.26-.77-.51-1.28-1.03-1.54s-1.28-.51-2.57-.77v-.51h14.12Z"/>
    <path class="st1" d="M695.37,731.56v4.62c1.8-2.05,3.59-3.34,5.13-4.36s3.34-1.28,5.39-1.28c2.31,0,4.11.51,5.65,1.8,1.54,1.28,2.57,2.82,3.08,4.62.51,1.54.51,4.11.51,8.21v13.6c0,2.82.26,4.36.77,5.13s1.54,1.03,3.08,1.28v1.28h-17.71v-1.28c1.28-.26,2.31-.77,2.82-1.54.51-.51.51-2.05.51-4.62v-15.66c0-2.82,0-4.62-.26-5.39s-.51-1.28-1.28-1.8c-.51-.51-1.03-.51-1.8-.51-2.05,0-4.11,1.54-5.9,4.62v18.73c0,2.57.26,4.36.77,4.88.51.77,1.54,1.03,2.82,1.28v1.28h-17.71v-1.28c1.54-.26,2.57-.51,3.08-1.54.51-.51.51-2.05.51-4.88v-19.76c0-2.57-.26-4.36-.77-4.88-.51-.77-1.54-1.03-3.08-1.28v-1.28h14.37Z"/>
    <path class="st1" d="M736.18,731.56v4.62c2.05-2.05,3.59-3.59,5.39-4.36,1.54-.77,3.34-1.28,5.39-1.28,2.31,0,4.11.51,5.65,1.54,1.54,1.03,2.82,2.57,3.59,4.88,2.05-2.31,3.85-3.85,5.65-4.88s3.85-1.54,5.9-1.54c2.31,0,4.36.51,5.9,1.8,1.54,1.03,2.57,2.57,3.08,4.36s.77,4.36.77,8.21v14.37c0,2.82.26,4.36.77,5.13.51.77,1.54,1.03,3.08,1.28v1.28h-18.22v-1.28c1.54,0,2.57-.77,3.08-1.54s.77-2.31.77-4.62v-15.14c0-3.08,0-5.13-.26-5.9s-.77-1.54-1.28-1.8c-.51-.51-1.03-.51-1.8-.51-1.03,0-2.05.51-3.34,1.28-1.03.77-2.31,2.05-3.34,3.59v18.73c0,2.57.26,4.11.51,4.88.51,1.03,1.8,1.54,3.34,1.54v1.28h-18.22v-1.28c1.03,0,1.8-.26,2.31-.77.51-.51,1.03-1.03,1.03-1.54.26-.51.26-2.05.26-4.11v-15.14c0-3.08,0-5.13-.26-5.9s-.77-1.54-1.28-1.8c-.51-.51-1.28-.77-1.8-.77-1.03,0-1.8.26-2.82.77-1.28.77-2.31,2.05-3.85,4.11v18.73c0,2.57.26,4.11.77,4.88.51.77,1.54,1.28,3.08,1.28v1.28h-18.22v-1.28c1.54-.26,2.57-.51,3.08-1.54.51-.51.51-2.05.51-4.88v-19.76c0-2.57-.26-4.36-.77-4.88-.51-.77-1.54-1.03-3.08-1.28v-2.05h14.63Z"/>
    <path class="st2" d="M812.14,747.73h-19.25c.26,4.62,1.54,8.21,3.59,11.04,1.8,2.05,3.85,3.08,6.16,3.08,1.54,0,2.82-.51,4.11-1.28s2.57-2.31,3.85-4.62l1.28.77c-1.8,3.85-4.11,6.67-6.42,8.21-2.31,1.54-4.88,2.31-7.96,2.31-5.13,0-9.24-2.05-11.81-5.9-2.05-3.34-3.34-7.19-3.34-12.06,0-5.9,1.54-10.52,4.62-13.86,3.08-3.59,6.93-5.13,11.04-5.13,3.59,0,6.67,1.54,9.24,4.36,3.34,3.08,4.88,7.44,4.88,13.09h0ZM802.9,745.16c0-4.11-.26-6.67-.77-8.21-.51-1.54-1.03-2.57-2.05-3.34-.51-.51-1.28-.77-2.05-.77-1.28,0-2.31.51-3.08,1.8-1.54,2.31-2.31,5.39-2.31,9.24v1.28h10.27Z"/>
    <path class="st1" d="M827.8,731.56v4.62c1.8-2.05,3.59-3.34,5.13-4.36s3.34-1.28,5.39-1.28c2.31,0,4.11.51,5.65,1.8s2.57,2.82,3.08,4.62c.51,1.54.51,4.11.51,8.21v13.6c0,2.82.26,4.36.77,5.13.51.77,1.54,1.03,3.08,1.28v1.28h-17.71v-1.28c1.28-.26,2.31-.77,2.82-1.54.51-.51.51-2.05.51-4.62v-15.66c0-2.82,0-4.62-.26-5.39s-.51-1.28-1.28-1.8c-.51-.51-1.03-.51-1.8-.51-2.05,0-4.11,1.54-5.9,4.62v18.73c0,2.57.26,4.36.77,4.88.51.77,1.54,1.03,2.82,1.28v1.28h-17.71v-1.28c1.54-.26,2.57-.51,3.08-1.54.51-.51.51-2.05.51-4.88v-19.76c0-2.57-.26-4.36-.77-4.88-.51-.77-1.54-1.03-3.08-1.28v-1.28h14.37Z"/>
    <path class="st1" d="M866.55,718.47v12.83h8.21v3.59h-8.21v21.56c0,2.05,0,3.34.26,3.85s.51,1.03,1.03,1.54c.51.26,1.03.51,1.28.51,1.54,0,3.08-1.28,4.62-3.59l1.03.77c-2.05,4.88-5.39,7.19-9.75,7.19-2.31,0-4.11-.51-5.65-1.8s-2.57-2.57-2.82-4.11c-.26-.77-.26-3.08-.26-6.93v-18.99h-4.62v-1.28c3.08-2.31,5.9-4.62,7.96-6.93,2.31-2.57,4.11-5.13,5.9-8.21h1.03Z"/>
    <path class="st1" d="M427.18,552.42c-.26.51-.77,1.03-1.28,1.28"/>
    <path class="st1" d="M439.24,460.03c1.28,0,2.57-1.03,2.57-2.57,0-1.28-1.03-2.57-2.57-2.57-1.28,0-2.57,1.03-2.57,2.57s1.03,2.57,2.57,2.57h0Z"/>
    <path class="st1" d="M553.7,355.58h-89.05v71.86c0,6.93,2.82,13.09,6.93,14.89l34.13,20.53c.77.77,1.8,1.28,3.08,1.28,1.03,0,2.05-.51,2.82-1.03l34.65-20.79c4.11-1.8,6.93-7.96,6.93-14.89l.51-71.86h0ZM494.16,376.36h-7.7v-18.48h7.7v18.48h0ZM488.52,382.78l1.03-1.03-.77-1.28,1.54.26.77-1.54.77,1.54,1.54-.26-.77,1.28,1.03,1.03-1.28.26v1.54l-1.28-1.03-1.28,1.03v-1.54l-1.28-.26h0ZM466.96,405.88v-17.45h9.24v17.45h-9.24ZM468.5,380.47l1.54.26.77-1.54.77,1.54,1.54-.26-.77,1.28,1.03,1.03-1.28.26v1.54l-1.28-1.03-1.28,1.03v-1.54l-1.28-.26,1.03-1.03-.77-1.28h0ZM479.28,398.18l1.54.26.77-1.54.77,1.54,1.54-.26-.77,1.28,1.03,1.03-1.28.26v1.54l-1.28-1.03-1.28,1.03v-1.54l-1.28-.26,1.03-1.03-.77-1.28h0ZM485.44,384.06c0-.51-.77-.51-1.03-.51-.77,0-1.28,1.28-1.8,1.54-.51,0-.77,0-.77-.51s1.03-.77,1.54-1.28c-5.65,0-5.9,2.57-6.67,2.57-1.54,0,1.28-2.82,2.05-3.59-1.28-.26-1.8-1.54-3.08-2.31.51-.77,1.03-.51,1.8,0,0-.51.51-1.28,1.8-1.28,2.57,0,1.8,2.57,2.31,2.57s0-2.57,1.8-2.57c2.57,0,5.65,6.67,2.82,6.67-1.8,0-.77-1.03-.77-1.28h0ZM478.76,364.82l1.03-1.03-.77-1.28,1.54.26.77-1.54.77,1.54,1.54-.26-.77,1.28,1.03,1.03-1.28.26v1.54l-1.28-1.03-1.28,1.03v-1.54l-1.28-.26h0ZM476.46,358.14v18.48h-9.24v-18.48h9.24ZM494.16,453.1l-21.3-12.83c-3.59-2.31-5.39-6.67-5.9-11.81v-20.27h27.2v44.91h0ZM486.46,405.88v-17.45h7.7v17.45h-7.7ZM521.62,454.38l-9.75,5.9h-.26c-.77.51-1.54,1.03-2.57,1.03s-1.8-.26-2.57-1.03l-9.75-5.9v-46.2h24.89v46.2h0ZM521.62,405.88h-24.89v-47.74h24.89v47.74h0ZM551.14,428.46c-.51,5.13-2.31,9.5-5.9,11.81l-21.3,12.83v-44.91h27.2v20.27h0ZM551.14,405.88h-27.2v-47.74h27.2v47.74h0Z"/>
    <path class="st1" d="M492.62,424.61c-.26-.26-3.34,1.03-2.57,1.03,0-1.03,1.8-2.82,2.82-3.59-.26-1.03-1.54,0-3.08.77,5.13-7.19,1.8-4.36-1.03-3.85,4.62-4.88,3.34-4.88,0-3.34,2.57-2.05,3.08-4.62,2.82-5.39-2.57,3.34-4.62,2.82-4.62,5.9,0,2.05-.77,5.39-1.8,6.42-1.28,1.54-.26-5.39-3.85-5.39-1.03,0-3.85,0-4.62,1.28.77,0,1.8,1.8,1.8,2.57s.77,2.57-.51,2.57-2.57-2.57-2.57-3.59v-2.57c0-2.82-4.62-6.93-6.67-6.93,0,2.05,2.57,2.57,2.57,5.13-1.03,0-2.57-2.05-2.57-.77s1.54,1.54,1.54,2.57-1.8-.51-1.8.77c0,1.03,1.03.77,1.28,1.8-.77-.26-1.54,0-1.54.26s.26.77.77,1.03c-.26.26-.51.77-.51,2.57,0,5.65,3.59,8.21,6.16,8.21,1.8,0,1.54-1.28,1.8-1.8,0,1.03,1.03-.51,1.03,1.28s-1.8,1.03-1.8,2.57c0,2.05,2.82,0,2.82,2.05,0,2.82-.26,2.57-.26,3.59,0,.77,3.08-1.03,2.82-1.28.77.26.77,2.31,2.05,2.31.77,0,1.03-2.05,1.8-2.31-.51,0,2.82,2.05,2.82,1.03,0-2.57-1.03-1.54-1.03-3.34s3.59-1.28,3.08-2.31c-.51-.77-.77-.26-1.28-1.54,0,.26-2.82-4.11.51-1.8,3.34,2.57,3.85-5.39,3.59-5.9h0Z"/>
    <path class="st1" d="M587.58,443.35c1.54,0,2.82-1.28,2.82-2.57s-1.28-2.57-2.82-2.57-2.82,1.03-2.82,2.57,1.28,2.57,2.82,2.57h0Z"/>
    <path class="st1" d="M575.78,450.53c1.54,0,2.82-1.28,2.82-2.57,0-1.54-1.28-2.57-2.82-2.57s-2.82,1.28-2.82,2.57,1.28,2.57,2.82,2.57h0Z"/>
    <path class="st1" d="M435.14,466.7c1.54,0,2.82-1.28,2.82-2.57,0-1.54-1.28-2.57-2.82-2.57s-2.82,1.28-2.82,2.57c0,1.54,1.28,2.57,2.82,2.57h0Z"/>
    <path class="st1" d="M444.37,467.47c1.54,0,2.82-1.28,2.82-2.57,0-1.54-1.28-2.57-2.82-2.57s-2.82,1.28-2.82,2.57c-.26,1.54,1.03,2.57,2.82,2.57h0Z"/>
    <path class="st1" d="M697.68,344.8c4.36,5.13,5.39,13.35,2.05,19.5-1.8-.26-1.28-2.31-1.8-3.59-3.08-5.9-5.65-13.09-2.82-19.76,2.05.26,1.28,2.82,2.57,3.85h0Z"/>
    <path class="st1" d="M325.81,351.73c-1.03,3.85-1.03,8.98,0,12.32-.77.77-.51-.77-1.28-.51-6.16-4.36-3.34-13.09-4.88-18.99.26-.51,1.03-.51,1.54-.26,2.82,1.8,4.11,4.36,4.62,7.44h0Z"/>
    <path class="st1" d="M711.03,352.24c1.03,1.8-.77,3.34-2.05,4.11-1.28.26-2.82-.51-3.85-1.8-.51-1.8.51-3.34,1.8-4.11,1.54,0,3.08.51,4.11,1.8h0Z"/>
    <path class="st1" d="M316.31,359.17c-.26,1.28-.77,2.82-2.05,3.34-1.03,0-2.31,0-2.82-.77-1.03-.77-1.03-2.31-.51-3.34.51-1.03,1.8-1.28,3.08-1.28.77.51,2.05.77,2.31,2.05h0Z"/>
    <path class="st1" d="M716.93,361.74c.26,1.03.26,1.54,0,2.57-1.03,1.28-2.57,2.05-4.11,1.28-1.03-.51-1.28-1.8-1.8-2.57.26-1.28,1.54-2.31,2.57-2.82,1.54,0,2.57.77,3.34,1.54h0Z"/>
    <path class="st1" d="M708.2,361.99c1.28.51.26,2.31.26,3.08-.77.77-1.8,2.05-3.34,1.54-.77-.77-1.8-.77-2.05-1.8,0-1.54.51-3.08,2.05-3.59,1.28-.26,2.05.26,3.08.77h0Z"/>
    <path class="st1" d="M696.91,364.3c0,1.8.26,3.85-1.8,4.11-1.8.51-3.08-1.03-3.59-2.31-.26-1.54.77-3.08,2.31-3.85,1.03.26,2.31,1.03,3.08,2.05h0Z"/>
    <path class="st1" d="M333.25,365.07c.51,1.54-1.03,2.57-2.05,3.34-1.03.26-2.57-.51-3.08-1.8-1.03-1.03.26-2.05.51-3.08,1.8-1.28,4.11-.26,4.62,1.54h0Z"/>
    <path class="st1" d="M324.01,365.59c0,1.28-.51,2.57-1.8,3.08s-2.57-.51-3.08-1.54c-.77-1.54.26-3.08,1.28-3.59,1.8-.77,3.08,1.03,3.59,2.05h0Z"/>
    <path class="st1" d="M659.18,366.1c1.54,3.34,2.82,7.19,3.08,11.29-.51,3.08.51,6.93-1.8,8.98-2.05-.77-2.31-3.34-3.85-4.88-2.82-5.39-.26-11.81.51-17.19,1.54-.51,1.54,1.03,2.05,1.8h0Z"/>
    <path class="st1" d="M316.82,368.15c.51,1.8-1.03,2.82-2.05,3.85-1.8.51-3.08-1.03-3.85-2.31-.26-1.54.77-3.08,2.05-3.85,1.28,0,3.08.77,3.85,2.31h0Z"/>
    <path class="st1" d="M683.82,372.52c2.05,4.62,2.05,10.01.77,15.14l-1.03.77c-2.05-4.11-5.39-8.21-6.42-12.58,0-3.34.51-6.16,1.8-8.98,1.03-.77,1.8.26,2.05,1.03.51,1.8,1.28,3.85,2.82,4.62h0Z"/>
    <path class="st1" d="M703.33,369.69c-.26,1.54-.77,3.34-2.31,3.85-1.54.26-3.08-.26-3.59-1.8-.51-1.54.51-3.08,1.8-3.85,1.54-1.03,3.34.51,4.11,1.8h0Z"/>
    <path class="st1" d="M324.27,374.57c0,1.28-1.03,2.57-2.31,3.08-1.28,1.03-2.05-.51-3.34-1.03-.51-1.28-.77-2.31,0-3.59.51-1.03,1.54-1.03,2.57-1.28,1.28.77,2.57,1.28,3.08,2.82h0Z"/>
    <path class="st1" d="M330.94,373.8c.51,1.54-1.03,2.31-1.8,3.08-1.8.51-2.82-.77-3.59-1.8-.26-1.54.51-2.57,1.8-3.34,2.05-.51,2.82.77,3.59,2.05h0Z"/>
    <path class="st1" d="M707.69,373.29c-.26,2.05-3.34,4.11-3.59,6.16-1.8,4.11-5.39,7.44-9.5,8.73-1.03.77-2.05,1.8-3.59,2.05-.26-3.08,2.57-5.9,4.11-8.73,3.34-4.11,7.7-6.93,12.58-8.21h0Z"/>
    <path class="st1" d="M321.19,379.96c2.31,2.57,3.59,4.88,6.42,7.44.26.51-.26,1.54-1.03,1.54-7.7-.51-12.83-8.21-16.43-13.86.51-1.8,2.57-.26,3.59-.51,2.31,2.05,5.39,2.82,7.44,5.39h0Z"/>
    <path class="st1" d="M709.74,382.01c-.26,6.67-3.59,13.6-9.75,16.94-1.8.51-3.59,2.31-5.39,1.28,3.34-6.67,8.21-12.32,13.6-18.22h1.54Z"/>
    <path class="st1" d="M679.97,386.63c.51,2.31-.77,3.85-2.57,4.62-1.8.26-2.82-1.28-3.59-2.57-.26-1.54.77-3.08,2.05-3.34.51-.51,1.28-.51,1.8-.51,1.03.26,1.54,1.03,2.31,1.8h0Z"/>
    <path class="st1" d="M312.46,388.17c3.08,2.05,5.65,4.88,8.47,7.44-2.05,1.28-4.62.26-6.93.26-5.39-1.8-8.73-6.42-14.37-7.96.26-1.8,2.05-1.03,3.34-1.54,3.59-.77,6.42,1.03,9.5,1.8h0Z"/>
    <path class="st1" d="M478.76,341.72c-8.73-3.34-14.37,5.65-23.35,4.62-1.03.51-.77,1.8-1.28,2.57-.51.51-1.28.26-1.8-.26-.51-3.85-1.8-7.19-2.05-10.78-1.03-1.54-.51-3.85-1.28-5.39-4.88-13.6,12.06-3.34,15.4-11.29,3.08-6.93-5.65-7.7-8.47-12.58v-2.05c-2.57-2.57-5.13-3.34-6.67-6.67,1.03-3.85,1.54-8.21.51-12.06-.26-1.03-.77-2.31-2.05-1.8-3.08,4.11-5.13,7.44-7.96,11.29-2.82-2.31-5.65-4.88-9.24-6.93-2.31-.26-4.62-2.57-7.19-1.8-.51,1.03,0,1.8.51,2.31.26,6.16,3.34,11.04,7.7,15.4l.51,2.31c-2.82,6.42-2.05,13.86-2.82,20.53-6.93,17.71-18.22,34.9-33.62,47.48-8.73,10.01-19.5,19.76-20.79,33.36-.51,2.31.26,4.88-1.28,6.42-5.13-1.8-10.27-4.36-14.37-7.7-7.19-5.13-17.45-4.36-22.07-13.35-1.8-3.59.51-7.19,2.05-9.75,5.39-4.88,4.62-13.86,1.8-20.02-.51-.26-.77.51-1.28.77-.51,9.24-7.7,15.66-4.88,25.92.51,3.08,2.05,4.88,3.08,7.7-1.03-.26-2.57-.26-3.59-.77-3.34-.51-6.93-1.8-10.52-1.28-7.19,3.34-16.94-.77-22.58,5.9-1.03.26-2.05.26-1.8,1.8,3.34,0,6.67,1.03,10.01.77,5.39,1.03,8.98-3.59,12.83-5.65h1.03c1.54-1.54,4.11-.51,6.16-1.03,9.75,1.03,17.45,5.9,25.41,10.52v.51c-3.08,1.28-6.67,2.31-9.75,4.11-3.59,2.57-7.7,6.16-8.73,10.52-2.57,3.85.77,7.44,2.31,10.52.26,1.54.26,3.34,1.8,4.11,4.88-5.39.26-11.81,1.03-17.96,1.28-4.62,5.65-6.93,10.01-8.21,8.73-3.85,15.14,3.34,22.33,7.44-.26,7.19.77,14.12-.77,21.04-2.05.77-4.88,1.28-7.19,1.03-12.32,1.03-21.81,7.7-32.85,11.29-4.88,1.8-10.78,1.54-15.91,3.34,3.85,1.03,7.96-.26,12.06-.51,15.14-2.31,26.95-13.86,43.37-11.81l.26.51c-1.8,3.85-4.36,7.19-7.19,10.27-.51-1.8-.51-3.08-2.05-4.11-1.28-.51-2.57,0-3.59,1.28-.51.77-.51,1.8,0,2.31.77,1.28,2.05,1.8,3.34,2.31-.26,1.28-2.05,2.05-2.82,3.34-4.36,7.44-13.09,4.36-18.22,9.5-.77,1.03-3.59,1.8-2.31,3.34,5.9.51,11.55-1.03,15.91-4.11,5.65-6.42,11.81-12.58,17.45-18.48,1.03,5.13-.51,10.27-3.34,14.12-1.28-.77-2.57-1.8-4.11-2.31-1.54.26-2.57,1.8-2.82,3.08.51,1.03,1.28,2.31,2.31,3.08-5.39,3.85-12.06,4.11-17.96,5.9-11.29,1.28-22.33,2.31-33.88,2.57-5.39-.26-11.55,1.54-16.68,0-5.9,1.03-12.32-.77-17.19,2.57-.51.77.26,1.54.26,2.31,7.19,4.62,16.94,1.03,24.89,2.31h61.08c4.62-.26,8.98-.26,12.58-2.31,7.96-4.62,12.32-12.58,16.43-20.53,1.54-2.82,2.57-6.16,3.34-9.5,1.54-5.39,6.42-8.98,11.55-9.5.77,8.21-.77,16.17-2.57,23.87-1.03,5.13-4.11,9.75-2.05,15.14.51,2.57,3.08,2.57,5.13,2.82,18.73-.26,37.47-1.03,57.49.26,3.59.51,6.67,1.8,10.52,1.54.26-.51,1.28-.51,1.03-1.54-.51-1.8-1.8-3.85-3.85-4.36-.26-1.03-1.8-.51-2.05-1.28-10.01-5.65-21.81-2.57-33.62-2.57-6.16.51-12.06,1.8-17.19-1.8-2.31-2.82-.51-11.81-.51-11.81,0-3.59,8.47-28.23,9.75-30.28.26-2.31,1.28-4.62,1.03-7.19,1.28-3.08,1.03-7.19,1.03-10.52.51-5.13,3.08-9.75,4.88-14.63,1.03-2.31,1.8-4.88,2.57-7.19,1.03-3.08,1.28-5.9,3.08-8.21,5.13,3.34,10.01,3.08,12.58,8.98l2.05,13.09c0,.77.51,2.31,1.8,1.54,4.11-2.57,2.82-8.73,2.82-12.58,1.03-4.88-2.57-7.19-3.85-11.29-1.03-.77-2.82-4.62-2.82-4.62-.51-3.34-8.21-5.9-6.42-10.01,1.03-3.59,1.8-6.93,5.39-8.98.51.26.77.77.77,1.03l1.8-1.28.26-13.09c5.13,0,12.58.51,17.71.51,1.28.51,2.57,1.54,4.11,1.8l1.28-1.8,12.58-2.57c-7.19,1.28-10.52-4.88-15.65-4.88h0Z"/>
    <path class="st1" d="M492.37,347.36c.26,0,.77,0,1.28-.26l-1.28.26h0Z"/>
    <path class="st1" d="M357.12,390.99c.26,1.8-1.03,3.08-2.31,3.59-1.28-.51-2.05-.51-2.82-1.8-.51-1.8,1.03-3.08,2.05-3.59,1.28,0,2.82.26,3.08,1.8h0Z"/>
    <path class="st1" d="M347.11,390.99c1.03,1.03,1.03,2.57.51,3.59-1.03,1.03-2.82,1.8-3.85.51-1.03-1.03-1.8-2.05-1.03-3.34,1.28-1.28,3.08-2.05,4.36-.77h0Z"/>
    <path class="st1" d="M563.2,392.53c0,.26.26.26,0,0"/>
    <path class="st1" d="M681.51,395.36c.51,1.8-.77,3.08-2.05,3.59-1.54-.51-3.59-.77-3.59-2.82.26-1.28,1.28-2.05,2.31-2.31,1.54-.51,2.82.51,3.34,1.54h0Z"/>
    <path class="st1" d="M689.72,394.84c.51.77,1.54,2.05.26,2.82-.51.51-1.03.51-1.54,1.28-1.8.26-3.34-.26-3.85-1.8-.26-1.8,1.03-2.57,2.31-3.34,1.28-.26,2.05.51,2.82,1.03h0Z"/>
    <path class="st1" d="M308.1,396.9c-.51,1.8-2.05,2.57-4.11,2.05-.51-.51-1.03-1.28-1.28-2.05.26-1.03.51-2.31,1.8-2.57,1.8,0,3.08.77,3.59,2.57h0Z"/>
    <path class="st1" d="M360.45,399.46c-.26,1.28-1.54,2.31-2.57,3.08-1.54.26-2.57-1.03-3.34-2.31,0-1.28.51-2.82,1.8-3.08,1.54-.77,3.59.51,4.11,2.31h0Z"/>
    <path class="st1" d="M351.21,398.44c.51.51,1.03,1.8.51,2.57-1.03.77-2.31,2.31-3.85,1.28-1.03-.77-2.05-1.28-1.8-3.08.51-.51,1.28-1.54,2.31-1.8,1.28-.51,2.05.26,2.82,1.03h0Z"/>
    <path class="st1" d="M713.59,400.23c0,1.28-1.28,2.57-2.05,3.08-1.28.51-2.57.26-3.34-.77-1.03-.26-.51-1.54-.51-2.31.77-1.03,1.8-1.8,2.82-2.05,1.28.26,2.31,1.03,3.08,2.05h0Z"/>
    <path class="st1" d="M723.6,401.77c-.51,1.28-1.54,2.57-2.82,2.82-1.03-.26-2.57-.51-2.31-1.8,0-1.03.51-2.31,1.28-2.57,1.54-1.03,3.34-.26,3.85,1.54h0Z"/>
    <path class="st1" d="M325.81,403.83c.26,1.8-.26,3.08-1.8,3.85-1.03.51-2.05-.26-2.82-.77-.77-.77-1.28-2.05-.77-3.08.26-1.28,1.8-1.03,2.57-1.8,1.28,0,2.05.77,2.82,1.8h0Z"/>
    <path class="st1" d="M333.51,405.37c.51,1.28-1.03,1.8-1.28,2.57-.77.51-1.8,1.03-2.82.26-1.03-1.03-2.31-2.31-1.28-3.85,1.28-2.31,4.62-1.03,5.39,1.03h0Z"/>
    <path class="st1" d="M704.35,404.6c.26,1.54-1.28,2.57-2.05,3.59-1.28.26-2.82-.51-3.08-1.8-.26-1.28.51-2.31,1.8-3.08,1.28-.26,2.57,0,3.34,1.28h0Z"/>
    <path class="st1" d="M717.18,406.91c-.26,1.28-.26,3.08-1.8,3.85-1.28.26-2.82.26-3.85-.51-1.03-.77-1.03-2.31-.51-3.34.77-1.28,2.05-2.31,3.85-1.8,1.03.51,1.28,1.28,2.31,1.8h0Z"/>
    <path class="st1" d="M319.9,410.24c.51,1.28-.77,1.54-1.28,2.31-1.03.51-2.05.26-3.08-.26-1.03-.51-.51-2.31-.51-3.08,1.54-2.82,4.36-.77,4.88,1.03h0Z"/>
    <path class="st1" d="M707.43,413.32c.51.26.26,1.03.26,1.28-3.85,1.8-9.24,2.31-12.58-.51-1.8-1.54-4.11-2.31-6.16-3.34.77-2.05,3.59-1.8,5.65-2.31,4.11.51,7.7,4.62,12.83,4.88h0Z"/>
    <path class="st1" d="M327.35,411.78c.26,1.28-.51,1.8-1.03,2.57-.51,1.03-1.8.51-2.57.26-1.28-1.03-2.05-2.57-1.03-3.85,1.8-1.54,3.85-.77,4.62,1.03h0Z"/>
    <path class="st1" d="M341.21,412.81c.51,1.28-.26,2.57-1.54,3.34-1.03.51-2.05-.26-3.08-.51-.77-1.03-2.05-2.31-.77-3.59,1.28-2.31,4.11-1.03,5.39.77h0Z"/>
    <path class="st1" d="M520.6,419.48c-.26,3.08-5.39-.51-4.62,3.59.77,3.08,1.28,6.42,3.08,8.73,1.54,2.05.77,5.39.51,7.96-1.28,2.31-3.59,3.85-5.9,5.13-4.36-.51-11.04,2.31-13.09-3.34-.77-2.31-2.57-4.88-2.57-7.44.51-.26,1.03-.26,1.54-.77,0-1.03-1.28-1.54-1.03-2.57,5.13-.77-2.05-5.39,2.31-5.65,3.59,3.59,9.24,2.57,12.32,6.42.77.51,1.28,1.54,2.31,2.05-.51-3.59-2.31-7.44-2.82-11.55-.51-2.05.26-4.11,1.8-5.13,2.57-2.05,4.62.77,6.16,2.57h0Z"/>
    <path class="st1" d="M354.81,418.45c.51,1.54-.77,2.57-1.8,3.34-1.28.51-2.05-1.03-2.82-1.8-.51-1.54.51-2.31,1.54-3.08,1.28,0,2.31.51,3.08,1.54h0Z"/>
    <path class="st1" d="M450.53,419.99c1.8,6.16,1.28,12.32-1.8,17.45-.26,1.28.26,3.34-1.28,3.08-4.11-5.9-1.03-13.86.51-20.02.26-1.54,2.05-2.05,2.57-.51h0Z"/>
    <path class="st1" d="M583.47,422.82c2.05,4.36,2.31,10.27.26,14.63l-1.28,1.28c-1.8-3.59-3.08-7.19-3.59-11.04.77-2.82,1.8-5.39,1.8-8.21,2.31-.51,2.05,2.31,2.82,3.34h0Z"/>
    <path class="st1" d="M366.87,424.61c-1.03,1.8-3.59,2.31-5.39,3.59-3.59,2.82-9.24,3.34-13.86,2.57,4.11-5.65,10.27-8.98,17.71-7.44.51.77,1.28.51,1.54,1.28h0Z"/>
    <path class="st1" d="M302.97,430.26c5.65,4.11,7.19,9.75,10.78,15.4.51.51,2.05.77,1.28,2.05-1.28,1.03-2.57-1.03-4.11-.51-5.9-2.57-9.75-9.24-9.5-16.17,0-.77,1.03-.77,1.54-.77h0Z"/>
    <path class="st1" d="M577.32,435.14c.26,1.54-.26,3.08-1.28,3.59-1.8.51-3.08-.51-3.59-1.8-.51-1.03.51-1.8.77-2.57,1.28-1.28,3.34-.77,4.11.77h0Z"/>
    <path class="st1" d="M643.02,443.35c0-3.08.77-5.9,1.03-8.73.51-1.03.77-2.05.51-3.34,3.85-5.13,11.29-3.34,17.19-3.08,2.31,1.28,5.39,1.03,7.7,1.8,1.03-.77,2.57-1.03,3.85-.77,4.88-2.57,1.8-8.47,2.05-13.09l-1.8-4.62c-.51-1.03-1.03-2.05-1.28-3.08-1.03-1.03-1.54-3.08-2.57-4.11-2.57-6.93-7.7-10.78-12.06-16.17-7.96-10.27-20.27-16.17-32.85-20.27-12.32-4.11-24.64,1.28-35.67,5.13-3.34-1.03-5.13-3.59-6.16-6.67-.51-5.9.51-11.81,2.82-16.68.51-3.85,3.08-6.93,4.11-10.52,2.82-8.73,5.65-17.45,6.42-26.95.26-5.9-4.11-9.75-8.47-12.32-2.82-.77-6.42-.51-8.47,1.8-2.05,4.11-6.42,6.93-10.01,8.98-.26,2.57,2.82,1.03,4.11,1.8,3.34.51,7.19-.51,10.01,1.8.26,6.16-3.34,11.29-6.42,16.17-5.39,7.7-10.78,15.91-14.12,24.38l-.51-.51.77,38.24c4.88,8.21,11.04,17.71,20.27,20.79,4.88,4.11,11.29,8.98,17.96,5.39,3.59-1.03,3.85,3.85,5.65,5.9,1.8,5.9-2.31,9.75-2.57,15.14l-4.11,8.73c-4.62,8.98-8.73,18.73-15.91,26.43-2.31,0-3.85,2.57-6.16,2.57-1.28,1.8-3.85.51-5.39,1.03-4.88,2.05-11.55.77-14.89,5.39.26.51.77.51,1.28.77,9.5.26,20.02.77,30.03.26,1.28-.51,2.31-1.54,2.57-3.08-1.28-2.57.51-5.13,1.8-6.93.77-3.85,3.34-6.16,4.36-9.75,3.34-6.42,6.93-12.58,10.52-18.99l4.88-7.7c1.03-2.57,2.82-5.9,4.88-8.73,1.28-1.28,1.8-2.57,2.82-4.11.26-1.54-.51-2.31-1.54-3.34,1.03-1.03,2.82-.77,4.11-1.03,3.85,2.31,7.96,6.16,8.73,10.27l1.28,4.11.51,1.8-.26,5.13.51,4.88c.77,7.44-.51,15.14-1.28,22.58-2.57,8.98-13.09,8.21-20.53,10.27-1.8,1.28-5.39.51-5.39,3.85,8.98,1.8,19.5.77,29.26.51,1.54-.51,1.8-2.05,2.57-3.34.26-2.05,2.31-3.85,1.8-5.9-1.8-2.31-.26-5.65-.51-8.73.26-.77.26-1.8,0-3.08,1.28-4.62,1.03-10.01,1.8-14.37l.77-5.9h0Z"/>
    <path class="st1" d="M719.24,437.45c-4.88,6.93-10.27,14.89-18.99,17.45-.51,0-1.28.26-1.54-.51,5.39-5.65,7.96-14.37,16.43-16.43,1.28-.51,2.82-1.28,4.11-.51h0Z"/>
    <path class="st1" d="M295.52,444.89c-.77.51-.26,2.05-1.54,2.31-1.28.51-2.57-.26-3.34-1.28-.51-1.54.77-3.08,2.05-3.34,1.28.26,2.31.77,2.82,2.31h0Z"/>
    <path class="st1" d="M340.18,447.2c.51,1.28-1.03,1.28-1.8,1.8-6.42,2.31-13.09.26-17.96-4.62,0-.51,0-1.28.51-1.28,6.42,1.54,13.86.26,19.25,4.11h0Z"/>
    <path class="st1" d="M303.99,445.14c.26.51.51,1.8.26,2.31-1.03,1.28-2.31,1.8-3.85,1.28-1.03-.51-1.28-1.03-2.05-2.05.26-1.54,1.28-2.57,2.57-3.08,1.28.51,2.31.77,3.08,1.54h0Z"/>
    <path class="st1" d="M449.51,445.91c.26,1.28-1.03,2.31-1.8,3.08-1.28.26-2.57-.26-3.34-1.28-.51-1.03,0-2.57,1.03-3.08,1.54-.26,3.59,0,4.11,1.28h0Z"/>
    <path class="st1" d="M725.14,446.43c.51,1.54-1.03,2.31-2.05,3.34-1.03.51-2.05,0-3.08-.51-.26-.77-1.03-1.28-.77-2.57.51-1.28,2.05-2.05,3.59-1.8,1.03.77,1.54.77,2.31,1.54h0Z"/>
    <path class="st1" d="M735.41,445.91c1.03,1.28.26,2.57-.51,3.59-.51,1.03-1.8,1.28-2.82,1.03-1.03-1.03-2.05-1.28-2.31-2.82,0-1.28,1.28-2.31,2.31-2.57,1.54-.77,2.05.77,3.34.77h0Z"/>
    <path class="st1" d="M288.85,450.53c.26,1.03-.77,1.8-1.03,2.57-.77.26-1.54,1.03-2.57.51-1.03-.51-1.8-1.28-2.31-2.57.26-1.28,1.28-2.57,2.82-3.08,1.28.51,2.57,1.03,3.08,2.57h0Z"/>
    <path class="st1" d="M615.81,450.53c.26.51.26,1.28.26,2.05-1.03,1.28-2.05,2.31-3.85,1.54-1.03-1.03-2.05-1.8-1.54-3.34,1.28-1.8,4.11-2.31,5.13-.26h0Z"/>
    <path class="st1" d="M314,452.84c-.26,1.03-.77,2.31-2.05,2.31-1.28.26-1.8-1.03-2.57-1.8,0-1.28-.26-2.82,1.28-3.59,1.54-.51,3.34,1.03,3.34,3.08h0Z"/>
    <path class="st1" d="M299.12,453.1c.51,1.54-.51,2.57-1.54,3.34-1.8.51-3.34-.77-4.11-2.31.26-1.28,1.28-3.08,2.82-3.59,1.28.26,2.05,1.8,2.82,2.57h0Z"/>
    <path class="st1" d="M626.08,452.84c.26,1.54-.26,3.08-1.8,3.85-1.8.51-3.34-1.03-4.11-2.31.77-1.28,1.03-3.08,2.82-3.34,1.54,0,2.31.77,3.08,1.8h0Z"/>
    <path class="st1" d="M306.3,453.36c.51,1.03-.51,1.54-.77,2.31-.77,0-1.28,1.03-2.05.51-.51-.77-1.8-1.03-2.05-2.31-.26-1.54,1.03-2.31,2.05-3.08,1.54.26,2.31,1.28,2.82,2.57h0Z"/>
    <path class="st1" d="M716.67,454.64c-.51,1.28-1.28,1.8-2.57,2.57-1.28.26-2.05-.77-2.82-1.28s-.51-2.05-.26-2.82c1.54-2.57,5.65-1.28,5.65,1.54h0Z"/>
    <path class="st1" d="M728.48,455.41c-.51,1.8-2.05,2.57-3.85,2.57-1.28-.51-2.82-1.8-1.8-3.59.51-.51,1.03-1.28,1.8-1.28,2.05-.77,3.34.51,3.85,2.31h0Z"/>
    <path class="st1" d="M654.82,456.44c.77,2.05-1.03,2.57-2.31,3.59-1.03-.26-2.05-.51-3.08-1.28-.26-1.8.51-3.34,2.05-4.11,1.54,0,2.31.77,3.34,1.8h0Z"/>
    <path class="st1" d="M611.96,458.23c.77.26.51,1.28.26,1.8-1.03.51-2.05,2.31-3.59,1.28-1.03-.51-1.8-1.54-1.54-3.08.77-1.54,4.11-1.8,4.88,0h0Z"/>
    <path class="st1" d="M620.69,459.26c.26,1.28-.26,1.8-1.28,2.57-1.03,1.03-2.31-.26-3.34-.51-.26-.51-.51-1.54-.26-2.31.51-.51,1.28-1.03,2.05-1.28,1.03.51,2.31.51,2.82,1.54h0Z"/>
    <path class="st1" d="M357.12,459.52c1.03,1.03-.26,2.05-.26,3.08-.77,1.03-2.57,1.8-3.85.77-1.54-.51-1.28-2.57-1.03-3.85,1.03-.26,1.03-1.28,2.05-1.28,1.54,0,2.31.51,3.08,1.28h0Z"/>
    <path class="st1" d="M671.25,460.03c.26,1.54-1.28,2.31-2.31,2.57-1.8.51-2.82-.77-3.59-2.05,0-1.03,1.03-1.54,1.28-2.31,2.31-.77,3.59.77,4.62,1.8h0Z"/>
    <path class="st1" d="M663.03,460.03c.51,1.54-1.03,2.31-1.8,3.08-1.03.51-2.57.26-3.34-.51-.77-.51-.77-1.28-.77-2.31,1.03-.77,1.28-1.8,2.57-2.05,1.28,0,2.57.77,3.34,1.8h0Z"/>
    <path class="st1" d="M732.84,462.08c.26,2.31-2.57,1.03-3.59,1.8-6.42,3.85-14.89,1.03-21.04-1.28.51-2.05,2.82-1.28,4.11-2.05,6.67-4.11,13.6,1.03,20.27,1.28l.26.26h0Z"/>
    <path class="st1" d="M308.1,460.03l-.51,1.03c-5.65,3.34-13.09,5.9-20.02,3.59l-.51-1.03c5.65-4.11,13.35-5.39,20.79-4.11l.26.51h0Z"/>
    <path class="st1" d="M687.16,461.31c0,1.28-.51,2.31-1.54,3.08-1.54.51-3.59,0-4.11-1.8-.51-1.28.77-2.57,2.05-3.08,1.03,0,3.08.26,3.59,1.8h0Z"/>
    <path class="st1" d="M335.82,461.83c-.51,1.28-.26,2.57-1.8,3.08s-3.34-.77-3.85-2.05c-.51-1.8.77-2.31,1.54-3.08,1.8-.77,3.08.77,4.11,2.05h0Z"/>
    <path class="st1" d="M324.78,462.6c.51,1.03-.51,1.8-.77,2.57-.77,1.03-2.05.77-3.08.51-1.03-1.03-2.05-2.05-1.8-3.85,1.03-.77,1.28-1.28,2.57-1.8,1.28.51,2.82,1.03,3.08,2.57h0Z"/>
    <path class="st1" d="M697.94,466.19c-.26,1.28-1.28,2.57-2.57,2.82s-2.31-.77-2.82-1.54c-.51-1.03-.26-2.31.51-3.08.26-.51,1.28-.51,2.05-.77,1.54.26,2.57,1.28,2.82,2.57h0Z"/>
    <path class="st1" d="M313.23,464.65c.51,1.28-.51,1.8-.77,2.57-.51,2.57-2.05,4.36-3.34,6.67-3.08,3.59-7.19,3.59-11.29,4.62l-.51-1.28c4.62-5.9,9.24-10.27,15.66-13.09l.26.51h0Z"/>
    <path class="st1" d="M690.24,467.99c.26,1.8-1.28,2.31-2.31,3.08-1.28,0-2.57-.77-3.08-1.8-.51-1.8,1.03-2.31,2.05-3.08,1.54-.51,2.82.51,3.34,1.8h0Z"/>
    <path class="st1" d="M331.2,467.99c-.26.26.26.51.51.77-.26,1.8-1.28,2.31-2.31,3.08-1.28,0-2.57-.51-3.34-1.54-.51-1.28,0-3.08,1.54-3.59,1.28-.26,3.08-.26,3.59,1.28h0Z"/>
    <path class="st1" d="M718.72,472.61c1.54-.26,1.8-2.05,3.59-2.31,1.54-.26,2.82.51,3.85,1.8.51,1.8-.77,2.82-2.05,3.59-1.03.77-3.34-1.03-3.34,1.03,1.03.77,2.05,1.8,2.05,3.08-.26.51-1.28.51-1.8.26-4.62-1.8-9.24-4.88-11.29-9.75-.51-1.28-3.59-2.57-1.8-3.85,4.62-.26,8.47,3.34,10.78,6.16h0Z"/>
    <path class="st1" d="M733.87,467.73c.77.77.51,2.31-.26,3.08-.77,1.54-3.08,1.03-4.62.77-.77-.77-1.54-1.54-1.28-2.82.51-1.03,1.28-1.54,2.31-2.05,1.54-.26,2.57.26,3.85,1.03h0Z"/>
    <path class="st1" d="M677.41,476.2c1.28,1.8,2.82,4.36,3.34,6.16-.26.51-1.03.26-1.28.26-5.39-3.08-12.06-6.16-14.12-12.58-.51-.51-1.8-1.28-1.54-2.57,4.11-.77,7.96,2.31,10.78,4.36,1.03,1.8,2.05,2.82,2.82,4.36h0Z"/>
    <path class="st1" d="M322.47,470.3c.51,1.28-.51,2.57-1.28,3.08-1.8.26-2.57-.26-3.59-1.28-1.03-1.8,1.03-3.08,2.05-3.85,1.28,0,2.05,1.28,2.82,2.05h0Z"/>
    <path class="st1" d="M696.91,473.89c.26,1.03-1.03,1.54-1.54,2.31-1.28.26-2.57.51-3.59-.51-.26-.77-1.03-2.05-.26-2.82,1.8-2.31,4.11-.51,5.39,1.03h0Z"/>
    <path class="st1" d="M735.41,476.2c.51,1.8-1.03,3.08-2.05,3.85-1.54.51-2.82-.51-3.85-1.28-.77-1.03-.26-1.8,0-3.08,1.03-1.03,2.57-1.8,4.11-1.03.51.26,1.28.77,1.8,1.54h0Z"/>
    <path class="st1" d="M628.13,497.76c0,1.8-3.34,1.28-4.88,2.82-4.88,2.57-10.52,2.57-16.43,2.31v-1.03c5.65-4.62,13.6-6.42,21.3-4.11h0Z"/>
    <path class="st1" d="M401.52,504.43c-.26,1.28-1.03,2.31-2.31,2.57-1.03,0-2.05-.51-2.57-1.54-.51-1.8,1.03-2.57,2.05-3.34,1.28,0,2.57,1.28,2.82,2.31h0Z"/>
    <path class="st1" d="M625.31,506.23c-.26,1.28-.77,3.08-2.31,3.59-1.28.26-2.31-.51-3.34-1.03-.77-.51-.26-1.8-.51-2.57,1.03-2.82,5.13-2.82,6.16,0h0Z"/>
    <path class="st1" d="M656.36,506.74c-3.85,2.57-8.21,5.39-13.35,5.39l-8.47-.26-.77-.51c5.13-6.16,14.37-6.16,22.58-5.65v1.03h0Z"/>
    <path class="st1" d="M358.91,510.59c0,1.28-.51,2.57-2.05,3.08-1.54.26-2.57-.26-3.34-1.28-.51-1.28,0-2.82,1.28-3.59,1.8-1.54,3.59.51,4.11,1.8h0Z"/>
    <path class="st1" d="M366.61,512.13c.51.77-.26,1.28-.51,2.05-1.03.51-2.05.77-2.82,0-1.03-.51-1.28-1.8-1.03-2.57.51-1.03,1.28-.77,1.8-1.28,1.03.26,2.31.51,2.57,1.8h0Z"/>
    <path class="st1" d="M307.33,527.78c-1.54,1.8-4.11-.51-5.65-1.28-5.39-3.08-5.39-9.24-10.78-12.83.51-1.8,2.05.26,3.08-.26,1.03.51,2.05,1.28,3.34,1.8,5.13,3.08,6.42,7.96,10.01,12.58h0Z"/>
    <path class="st1" d="M759.79,467.22c-2.57-4.62-6.67-6.42-11.55-6.42-4.11.26-6.93,3.08-8.73,6.42-1.03,3.34.26,6.67,2.82,8.73,1.03.51,2.57.26,3.08-.77.77-2.05-1.28-2.05-1.8-3.59-.51-2.31.26-4.11,1.8-5.39,1.54-1.54,4.11-.77,6.16-.77,1.8,1.28,3.85,2.31,4.62,4.62,1.03,2.57,1.03,5.65,0,8.21-1.8,3.85-5.65,6.93-9.5,7.7-12.83,1.8-154.24,1.28-154.24,1.28-16.68,1.54-35.67-3.08-49.79,5.65-6.42,3.08-9.75,10.27-11.55,16.68-4.11,3.85-8.73,8.21-12.06,12.32l-.51-.51c.77-3.85,2.57-6.93,3.34-10.78,2.31-3.08,2.31-7.44,4.11-10.78,5.9-9.5,11.55-19.25,20.53-25.92,3.85-5.13,10.78-4.11,16.68-4.11,6.42,3.08,13.86,3.85,21.56,3.08.26-.26.51-.51.51-1.03-2.05-2.05-5.65-2.82-8.21-4.88-6.16-3.08-12.06,1.03-18.73.51-.26-.26-.51-.51-.51-1.03,5.9-4.36,12.58-7.44,19.25-10.27,5.39-3.08,11.29-4.62,16.94-6.67,2.31,0,4.62-2.05,6.67-.51l8.21-2.31c.26.26.51.51,1.28.51,6.93-2.31,15.91-.26,23.87-.26l1.03,1.03,7.44,1.8c2.82.26,4.11,3.59,6.93,3.85,1.54-2.31-1.8-3.08-2.57-4.62,3.34-.77,7.19.26,10.52,1.54l-1.54,1.8c-1.03,1.8.51,3.08,1.8,3.59,1.03.26,1.8-.51,2.57-.77,2.05-1.28-.26-2.82.51-4.11,11.55,2.05,22.58,4.88,33.11,9.5,2.82,1.03,5.65,3.08,8.98,3.08-3.34-3.08-7.7-4.62-11.81-6.16-2.57-1.54-6.42-1.8-8.47-3.85.51-.77,1.54-.51,2.05-1.03,5.39-.51,9.75-4.62,13.6-8.73.26-1.03,2.05-.51,1.8-1.8-1.28-1.54-3.85.51-5.65.26-6.42,1.28-9.24,8.98-15.91,10.27-7.96-1.8-15.91-3.85-23.87-5.9-3.85-.51-7.96-1.03-11.55-2.57l-8.73-.77h-15.91c-.26-.26-.51-.51-.51-1.03,5.65-1.28,10.52-4.62,15.91-6.16l41.58-18.99c4.36-3.85,8.21-8.21,11.81-12.83.26-1.28-.51-2.57-1.8-3.08-1.03-.51-2.31-.26-3.08.51-1.8,1.28,0,3.08,0,4.88-1.8,2.57-4.88,4.62-7.19,6.16-.51-.26-42.86,19.25-42.86,19.25-6.16,2.57-12.32,5.65-18.99,6.93l-8.98,1.28c-.51,1.8-2.05,3.08-3.85,3.59-2.57.51-4.62,2.05-7.19,2.05-20.27,7.7-41.06,16.17-57.23,32.08,1.03-1.8,1.28-4.11,1.54-6.67-.26-2.31-.26-4.88-1.8-6.93-.26-.77-1.54-3.34-1.03-4.36l-2.31,1.54c-1.28,3.34-2.57,9.75-1.28,13.35.51,2.82,2.82,6.16.51,8.73-7.44,8.98-11.55,20.02-16.68,30.28-1.8-.26-2.82-2.05-3.59-3.85,5.39-6.67,9.5-14.12,11.04-22.84,1.03-.77.26-2.82,1.28-3.85-.26-2.57,1.28-4.88.26-6.93,1.03-3.34-4.62-6.67-1.03-8.73l-2.82,1.28c-6.67,8.73,3.59,21.81-4.11,30.28v.51c-2.05,2.82-3.34,5.65-6.16,7.44-3.85-1.54-5.13-5.9-7.19-8.98-3.34-3.34-3.34-10.01-1.28-14.63,1.28-4.62-1.03-8.47-1.28-12.58l-1.54-1.03c-3.85,4.88-5.13,12.58-2.05,18.22,1.54,2.82,1.8,6.67,4.11,8.98,1.28,4.62,4.11,7.44,6.67,11.55.51,1.54-1.03,1.8-1.8,2.57-1.8-1.03-1.28-3.59-2.82-4.62-5.13-11.04-11.81-19.76-19.76-28.74-.26-1.28-1.8-2.57-1.03-4.11,3.08-2.82,3.59-8.21,2.05-11.81-.26-.77-1.28-1.8-1.03-2.57l-2.31-1.8c.26,5.39-3.34,10.27-1.8,16.17v.26c-15.91-12.06-33.62-22.84-51.58-31.31l-1.54,3.85c4.62,1.03,16.68,8.47,16.68,8.47,5.39,2.05,10.52,5.39,15.4,8.21,21.04,11.81,35.16,31.05,44.66,52.61.26,1.8,1.8,3.59.51,5.39-3.34-5.13-7.96-7.7-11.81-11.81-1.03-7.44-5.39-14.37-11.81-17.45-2.31-3.34-7.19-3.85-11.29-4.88l-56.46-.26c-45.94-.51-87.77,1.28-133.45.51-6.42-.51-14.12-2.82-15.91-9.5-1.28-2.31-1.28-6.42,0-8.73,1.8-3.08,4.88-3.85,7.96-4.11,2.57.26,4.11,2.57,5.39,4.36,0,2.05-1.8,3.85-2.57,5.65.26.51.77,1.8,1.8,1.28,2.05-.77,3.59-3.08,4.11-4.88.26-1.03.51-2.57-.51-3.34-1.03-3.34-4.36-5.65-7.19-6.42-3.85-.26-7.96.77-10.52,3.59-3.85,3.08-3.59,8.73-2.57,13.09,2.57,6.93,9.75,11.55,16.68,12.58l151.16.51c14.63.77,31.31-1.8,46.2,1.28,5.39,1.8,11.29,5.9,12.58,11.81-.26.26-.51.26-1.03.26-12.32-7.96-28.49-11.04-44.14-8.98-6.16-.26-11.81,2.05-17.45,3.59-2.82.51-5.65-.77-7.7-2.57-5.65-5.13-15.4-4.62-22.58-2.82,0,.51-.26,1.03.26,1.03,7.7-.51,12.06,5.9,18.99,6.67,1.54.26,2.82-1.28,4.11-.26-7.19,3.34-13.86,7.44-21.56,9.75-2.31-.51-3.59-2.57-5.39-3.85-2.82-3.34-8.47-1.8-12.32-2.31-1.28.26-2.57-.51-3.59,0,1.28,2.57,4.11,3.85,6.67,5.13,3.85,1.8,8.47-.26,12.06,2.31-1.03,1.03-2.05,1.28-3.34,2.31-7.19,2.82-13.35,9.5-21.3,8.98-8.47,1.03-17.19-1.54-23.1-7.44-2.57-6.16-8.73-9.5-15.66-8.98-.51.26-1.03.26-1.03,1.03,3.34,2.05,6.16,6.16,9.5,8.47,2.05,2.57,6.42,0,8.47,3.08,3.08,2.05,6.67,3.85,10.01,4.36,2.57,1.03,5.39,1.54,7.96,2.31l-1.03.51c-14.12,4.62-30.54,5.13-46.2,4.62-4.62-.26-9.24-1.54-13.86-1.28.77,1.03,2.31,1.8,3.85,2.31-1.28.77-2.57,1.03-4.11,1.28-1.8.51-4.11.51-5.9,1.54-2.57-.26-4.62.77-6.67,1.54-2.57,2.82-5.65,5.9-8.73,7.19,0,.51-.26,1.54.51,1.54,2.82-1.28,6.67-.26,9.75-1.54,5.13-.51,7.96-6.16,12.06-8.47,4.36-3.34,10.52-2.57,15.91-1.8,3.08.77-.26,2.05.51,4.11,1.28,1.03,2.31,2.31,4.11,1.8.26-.26.51-.51,1.03-.77,1.03-1.28.77-2.57.26-3.85,2.05-1.28,5.13.26,7.44-.77,5.9-.26,11.81-1.28,17.45-1.54,1.03-.26,2.05-1.03,2.82-.26-.51,1.28-2.05,1.28-1.28,3.08.26,1.28,1.8,2.05,3.08,2.31,1.54-.51,2.82-1.8,2.31-3.85-.26-1.03-1.54-1.28-2.31-1.8,3.34-1.54,6.93-2.05,10.27-3.59,2.31-.51,4.62-1.28,6.42-2.31,2.05-.26,3.85-2.05,5.65-1.28-.77,2.57-1.8,5.13-3.34,7.44-2.57,8.21-4.36,19.25,0,27.2.51.26.51-.26,1.03-.26-3.34-8.21-1.28-17.71,1.28-25.66,2.05-13.35,15.91-17.19,25.66-22.33l.51.51c-2.57,6.93-6.42,13.35-5.9,21.81.26,1.28-.51,2.82,0,3.85,2.57-1.28,4.36-4.62,5.65-7.19,1.03-6.93-2.82-15.91,4.11-21.04,12.83-4.88,24.64-11.55,39.52-11.81.51.51,1.54-.26,1.8.51-3.08,3.34-7.7,6.67-8.98,11.04-4.88,6.93-4.88,18.73-2.57,26.95,1.28,4.88-2.82,7.44-4.88,11.29-1.03,1.28-1.28,3.59-2.05,5.13l3.08.26c2.57-2.82,5.13-6.16,5.39-10.27.26,1.54,1.8,2.82,2.82,3.08,1.03-1.8-1.03-3.08-1.03-4.62,2.57-1.28,3.59,1.8,5.65,2.31,3.34.77,6.16,2.31,9.5,2.31l1.03-1.03c-3.34-5.39-10.27-6.16-16.17-6.67-3.08-5.13-3.08-11.55-2.82-17.71.51-3.34,1.28-6.67,3.08-9.75.77-2.31,2.82-4.11,4.36-5.9,2.82-2.57,6.42-4.62,9.75-5.39h.51c0,.26.26.51.26.51-4.11,3.34-4.62,7.7-7.19,11.81-2.57,3.85-3.85,9.24-1.28,13.6,1.03,2.05.51,5.13,2.57,6.67,2.05-2.82,2.05-6.42,3.34-9.5-.51-5.13-3.59-10.01-.51-14.89,1.54-3.85,4.88-5.39,8.47-6.93,8.47-.77,15.91,3.59,23.35,6.93,1.54,1.03,4.11,2.05,4.62,4.11-.26,4.11-2.57,8.47-5.65,10.52-4.11,2.57-10.27,2.82-14.12-.26-2.31-2.31-3.34-6.42-2.57-9.5,1.8-1.8,4.11-3.34,6.93-2.57,1.54.77,2.82,2.31,4.88,1.28.77-.51,1.03-1.8.51-2.57-1.8-1.03-2.31-3.34-4.62-3.59-2.82-.51-6.42-.26-8.47,1.8-3.34,2.82-4.62,6.93-3.59,11.04,1.03,4.88,4.88,8.73,9.5,10.01,7.19,1.8,14.63-.51,18.99-6.67,1.8-2.05,2.31-4.11,3.34-6.67,7.44,4.62,13.09,12.58,15.91,20.53,0,2.57.77,5.39.26,7.7l5.39.51c-.51-1.28,0-2.57.51-3.85,2.05-10.27,8.47-18.99,15.91-25.66,2.57-1.54,2.05,2.05,2.57,3.08,2.31,5.9,7.7,10.27,13.6,11.81,6.42,1.03,12.83-.51,16.68-5.39,2.05-3.85,4.62-9.24,1.03-13.09-2.05-2.57-5.13-4.11-8.47-4.11-4.11,0-6.42,2.82-8.47,5.9,0,1.28-.26,2.57,1.03,3.34.51,0,1.8.26,2.31-.77.26-2.31,2.31-3.34,4.11-4.62,1.8-1.03,3.59,0,4.88,1.03,1.8,1.28,2.05,3.85,2.05,6.16-.26,3.08-2.31,6.16-5.13,7.44-4.62,2.31-11.04,1.28-14.89-1.28-1.8-2.05-2.82-4.36-4.36-6.93-.26-2.57-1.28-4.62,0-7.19,6.93-4.11,13.86-6.93,22.33-7.7,3.34.51,6.16,2.82,8.21,5.13,7.19,7.44-1.54,17.71,3.34,25.92,1.8-.26,1.8-2.82,2.57-4.36,2.31-5.65-.51-11.81-2.05-17.19-1.8-3.34-2.82-6.42-5.9-9.24.77-.26,1.03-.26,1.8-.26,3.34,2.31,6.93,4.62,9.5,8.21,4.62,7.44,6.93,16.17,6.16,25.66-1.28,4.62-6.16,6.93-10.01,8.73-1.54,1.28-3.34,3.08-4.11,5.13,1.8,1.03,4.62,0,6.42-.77,2.82-1.03,4.62-4.88,6.67-6.67.26.26.26.51.26,1.03.26,1.8-.77,4.11.77,4.62.77-2.31,1.03-5.39,1.28-7.96,2.05,2.31,2.31,4.88,2.82,7.7,1.28,2.82,3.85,6.67,7.44,6.93,1.03-1.28-.26-2.82-.51-4.11-.51-3.85-3.85-5.9-5.9-8.73-5.39-7.44-2.82-19.25-7.19-27.72-1.54-4.62-4.88-7.7-8.47-11.55l.51-.51c7.7-.26,13.86,2.31,21.04,3.85,8.47,4.11,21.04,3.34,24.89,14.37,1.8,6.16,4.62,12.06,8.73,16.94l.51-.26c1.03-1.54,1.03-4.11,0-5.9-1.03-7.7-7.7-9.75-11.29-16.17l.51-.51c3.85,1.03,7.7,2.05,11.29,3.59,12.32,3.34,21.04,15.66,22.58,28.23,0,10.01-1.8,18.22-5.65,26.69-.51,1.28-2.57,2.57-1.28,3.85,1.8-1.28,2.05-3.34,3.08-4.62,5.13-8.73,7.7-20.53,5.13-31.31-.26-2.05-2.57-3.59-1.28-5.65.77,1.03,1.8,1.03,2.57,1.28,1.03-.51,2.31-.51,3.08-1.8.26-1.03.77-2.05,0-2.82-1.03-1.28-3.08-1.28-4.62-1.03-.77,1.03-1.8,2.31-1.8,3.34-1.54-2.57-3.08-6.16-5.65-8.21l.26-.51c6.93,2.31,13.35,5.9,20.53,7.7,1.54,1.03,3.34,1.8,5.39,1.8,6.16,2.31,12.83,3.34,18.99,4.88,4.62-.51,8.47,1.8,13.09.51v-.26l-.26.26c-1.8-2.31-5.39-.26-7.44-1.8-10.78-1.03-21.04-3.85-30.54-7.7.26-.51.77-.26,1.28-.26,1.54-.77,2.57-2.31,2.57-3.85-.77-1.03-2.05-1.8-3.59-1.8-1.03.51-2.05,1.54-2.31,2.57.26,1.28,1.28,2.57,2.31,3.08-.26.26-1.03.26-1.28.26-4.88-2.31-9.5-4.11-14.12-6.42-1.8-.26-3.08-1.8-4.88-2.05-3.59-1.8-7.19-3.34-10.78-4.88-10.01-5.13-21.04-7.96-31.57-11.81-2.31-.51-4.62-1.28-6.67-1.8-3.85-1.03-7.7-2.05-11.55-3.08-13.09-3.34-30.8-3.59-42.35,3.59-1.8-.51-2.82,2.31-3.85.51,3.34-8.73,12.83-11.29,21.3-11.81,62.36-.51,120.62-1.03,181.96-2.05,7.19,0,14.12-2.57,17.96-8.98,2.57-3.85,3.08-10.27,1.03-14.37h0ZM512.9,524.96c-.51,1.8-1.8,3.34-1.8,5.39l-.51.26c.51-2.31-1.8-3.85-1.28-6.16-1.28-1.8-1.28-4.11-2.31-6.16-1.28-2.57,1.28-3.59,2.31-5.39,2.05,1.03,2.82,3.08,4.62,4.88.77,2.57-1.03,4.62-1.03,7.19h0Z"/>
    <path class="st1" d="M681.51,514.95c0,.51,1.03.51.51,1.28-5.39,4.88-13.09,6.16-20.79,6.67-.51.26-1.28.51-2.05.51-.51-.26-.51-.77-.26-1.03,5.65-6.16,14.12-9.24,22.58-7.44h0Z"/>
    <path class="st1" d="M656.36,517.52c.51,2.31-.77,3.34-2.57,4.11-1.8-.26-2.57-1.28-3.34-2.57-.51-1.28.51-1.8,1.03-2.57,1.28-1.03,4.36-1.03,4.88,1.03h0Z"/>
    <path class="st1" d="M361.22,517.77c.26,1.03.26,2.57-.77,3.34-.51.77-2.05,1.03-2.82.77-1.03-.26-1.8-1.28-2.05-2.31,0-1.28.77-2.31,2.05-3.08,1.28,0,2.82,0,3.59,1.28h0Z"/>
    <path class="st1" d="M333.51,528.04v1.03c-3.85.77-7.19-.26-10.01-2.31-2.05-3.08-4.62-6.16-8.21-7.7,0-.51-1.03-1.03,0-1.28,7.7-.26,12.32,5.9,18.22,10.27h0Z"/>
    <path class="st1" d="M705.12,517.77c-3.59,5.39-6.67,11.81-13.09,14.12-1.03,0-2.05,1.54-3.08.51,2.57-5.9,7.7-12.32,13.86-14.89.77,0,1.54-.26,2.31.26h0Z"/>
    <path class="st1" d="M370.21,519.57c.26,1.8-1.03,2.05-2.05,3.08-1.28.26-1.8-.77-2.57-1.8-.51-1.54.77-2.31,1.54-3.08,1.03-.26,2.57.77,3.08,1.8h0Z"/>
    <path class="st1" d="M724.63,520.6c-1.28,2.05-.77,5.13-2.05,7.19-3.08,3.59-5.65,7.7-10.78,8.47-.77-1.54,1.03-3.08,1.8-4.62,2.05-4.62,5.39-10.01,10.27-12.06l.77,1.03h0Z"/>
    <path class="st1" d="M285.26,521.88c.51,1.03,1.03,2.31,0,3.34-1.03.77-2.31,1.03-3.59.51-1.28-.77-1.8-2.57-1.28-3.85,1.03-1.03,3.85-1.8,4.88,0h0Z"/>
    <path class="st1" d="M276.53,523.68c.26.77.51,1.28.51,2.31-.51.77-1.28,1.8-2.05,1.8-1.8.26-2.82-.51-3.59-2.05-.26-1.28.26-2.57,1.54-3.34,1.28-.51,2.82.26,3.59,1.28h0Z"/>
    <path class="st1" d="M294.75,524.7c.26,1.28.51,3.34-1.28,3.85-2.05,1.03-3.34-.51-4.62-1.8,0-1.28.77-2.57,1.8-3.08,1.8-.26,3.08-.26,4.11,1.03h0Z"/>
    <path class="st1" d="M320.16,526.76c-.26,1.03.26,2.57-1.03,3.08-.77.77-2.05.51-2.82.26-.26-1.03-2.05-1.8-1.03-2.82.51-.77,1.28-1.28,2.05-1.8,1.03.51,2.31,0,2.82,1.28h0Z"/>
    <path class="st1" d="M739.51,527.78c-.51,1.03-1.03,2.57-2.31,2.57-1.28-.26-2.82-.26-3.59-1.8-.51-1.8.77-2.57,2.05-3.08,1.54,0,3.59.77,3.85,2.31h0Z"/>
    <path class="st1" d="M711.03,528.55c.26,1.28-1.28,2.31-1.8,2.57-2.05,1.03-4.11-.51-4.88-2.31.26-1.28,1.28-2.31,2.57-2.82,2.05,0,3.34,1.03,4.11,2.57h0Z"/>
    <path class="st1" d="M730.27,528.3c0,1.03-.51,2.31-1.28,2.57-1.28.51-2.82.26-3.85-.51-1.28-1.28-.26-2.31.51-3.34,1.54-.77,4.11-.51,4.62,1.28h0Z"/>
    <path class="st1" d="M281.41,530.86c.26,1.8-.26,3.34-1.8,3.85-1.28,0-2.82-.77-3.34-2.31-.26-1.28.26-2.82,1.54-3.34,1.28,0,2.57.77,3.59,1.8h0Z"/>
    <path class="st1" d="M703.33,532.66c.51,1.8-.51,3.34-2.05,4.11-1.28.26-2.05-.26-2.82-1.03-.51-.77-1.28-2.57-.26-3.34,1.03-2.31,4.11-1.54,5.13.26h0Z"/>
    <path class="st1" d="M364.82,534.46c.51,1.8-1.28,2.05-1.8,3.08-.51.26-1.8.51-2.31-.26-.77-1.03-1.8-1.8-1.28-3.34.77-.51,1.03-1.28,2.05-1.54,1.8-.51,2.31,1.03,3.34,2.05h0Z"/>
    <path class="st1" d="M736.69,535.48c.26,1.03-.51,1.54-.77,2.31-1.03.77-2.57,1.03-3.59.51-1.28-.77-1.28-2.05-1.28-3.34,1.03-.51,1.03-1.28,2.05-1.8,1.54.26,3.08.77,3.59,2.31h0Z"/>
    <path class="st1" d="M726.94,536c.51,1.8-1.03,2.82-2.31,3.34-.51.26-1.54-.26-1.8.51,4.11,2.05,6.42,5.39,9.75,8.21v1.28c-5.65-.26-11.29-1.54-15.4-5.9-1.03-.77-2.82-.77-4.11-1.8,2.05-2.05,5.65-1.28,8.47-1.28,2.05-2.31-2.31-3.85.26-5.65,1.03-.26,1.54-1.03,2.82-.77,1.28.26,1.8,1.03,2.31,2.05h0Z"/>
    <path class="st1" d="M663.55,536.25c.26.77-.51,1.8-.77,2.57-1.03,1.03-2.31,1.03-3.34.51-.77-1.03-2.05-2.05-1.54-3.59,1.28-2.31,5.13-2.05,5.65.51h0Z"/>
    <path class="st1" d="M316.31,541.64c-.51,1.28-1.03,2.31-2.57,2.57-1.28-.26-2.31-.51-2.82-1.8-.26-1.03.51-1.8.77-2.57,1.8-1.54,4.88-.51,4.62,1.8h0Z"/>
    <path class="st1" d="M328.89,539.59c0,2.31-2.31,3.34-3.08,5.65-2.31,5.13-6.42,9.75-12.32,10.27-.51-1.28,2.05-3.08,2.57-4.62,2.57-5.39,7.44-8.21,12.06-11.29h.77Z"/>
    <path class="st1" d="M659.95,541.9c.26,1.8-1.28,3.08-2.57,3.59s-2.57-.51-3.34-1.28c-1.28-1.28-.51-2.57.26-3.85,1.54-1.8,4.36-.26,5.65,1.54h0Z"/>
    <path class="st1" d="M669.45,542.93c-.26,1.8-1.28,3.08-2.82,3.34-.26-.51-1.03-.26-1.54-.26-1.03-.51-2.05-1.54-2.05-2.82.77-.77,1.03-2.05,2.05-2.31,1.54,0,3.85,0,4.36,2.05h0Z"/>
    <path class="st1" d="M353.01,542.67c.26,1.8-1.03,2.57-2.31,3.34-1.28.26-2.31-.77-2.82-1.8-.26-1.28,1.03-2.31,1.8-3.08,1.8-.77,2.31.77,3.34,1.54h0Z"/>
    <path class="st1" d="M363.79,543.44c-.51,1.28-1.28,2.31-3.08,2.57-1.03-.26-2.31-.51-2.82-1.8-.26-1.54,1.03-2.31,2.05-3.08,1.8-.26,3.59.51,3.85,2.31h0Z"/>
    <path class="st1" d="M702.81,554.22c.77.51,2.05,1.28,1.8,2.57-2.57,1.03-4.62-1.8-6.93-2.31-3.85-3.85-6.42-7.7-7.96-12.58,1.28-1.28,2.82.26,4.11.77,3.85,3.08,7.19,7.19,8.98,11.55h0Z"/>
    <path class="st1" d="M708.72,543.44c.51,1.03.26,2.31-.26,3.34-1.03,1.54-2.82,1.28-4.36,1.03-.77-1.03-2.05-2.31-1.28-3.59.51-1.28,1.8-1.54,2.82-2.05,1.03-.26,1.8.77,3.08,1.28h0Z"/>
    <path class="st1" d="M378.16,547.29c.26,1.28.51,3.08-1.03,3.85-1.28.26-3.34-.26-3.85-1.8-.77-1.8,1.03-2.31,1.8-3.08,1.28-.26,2.05.26,3.08,1.03h0Z"/>
    <path class="st1" d="M668.94,557.55c2.05,3.08,3.59,6.93,4.11,11.04-.51,1.03.77,2.31-.26,3.08h-.51c-6.93-4.88-8.47-12.06-11.29-18.99-.51-.26-.77-1.03-.51-1.54,1.54-1.28,2.57,1.28,4.11,1.8l4.36,4.62h0Z"/>
    <path class="st1" d="M398.18,552.16c-.26.26,0,.26.26.26-6.16,4.36-14.89,6.93-22.07,2.82-.26-.51.26-1.28.77-1.28,4.62-1.28,8.73-3.59,13.6-3.08l7.44,1.28h0Z"/>
    <path class="st1" d="M362.76,552.93c-5.39,3.34-10.01,9.75-16.68,11.29-1.28.51-2.05,2.31-3.59,1.28,2.82-8.47,12.06-13.09,20.27-13.86v1.28h0Z"/>
    <path class="st1" d="M659.95,560.12c.51,1.28,0,3.08-1.28,3.34-.77.77-2.31.77-2.82,0-1.28-.51-1.28-2.05-1.28-3.08.51-1.03,1.54-1.28,2.31-1.8,1.03.26,2.31.26,3.08,1.54h0Z"/>
    <path class="st1" d="M646.87,560.89c-1.03,2.31-3.59,3.34-5.65,4.11-5.39,1.8-10.01-.51-14.63-1.8.26-1.28,1.8-.77,2.57-1.54,5.13-1.03,10.52-2.31,15.91-.77.26-.51,1.54-.77,1.8,0h0Z"/>
    <path class="st1" d="M362.76,565.51c-.51.51-.51,2.05-1.8,2.57-1.03.51-2.05,0-3.08-.51-.26-1.03-1.28-1.8-.51-2.82.26-1.03,1.54-1.28,2.57-1.8,1.28,0,2.57.77,2.82,2.57h0Z"/>
    <path class="st1" d="M372,566.79c-.51,1.03-1.03,2.31-2.05,3.08-1.28.26-2.05-.26-3.08-1.03-.51-1.03-1.03-2.05-.51-3.08.26-.77,1.28-1.03,2.05-1.28,1.54-.51,3.08,1.03,3.59,2.31h0Z"/>
    <path class="st1" d="M656.87,568.33c.26,1.28-.51,2.05-1.03,3.08-.77,1.03-2.31,1.28-3.34.51-1.03-.26-1.28-1.28-1.8-2.31-1.03-1.28.51-2.05,1.03-3.08,1.54-1.28,4.36-.51,5.13,1.8h0Z"/>
    <path class="st1" d="M663.8,568.08c.26.77.51,1.54.26,2.31-1.03.77-1.54,2.82-3.34,2.05-1.03.26-1.28-1.03-1.8-1.28-.51-1.54-.26-3.85,1.8-4.11,1.28-.77,2.31.51,3.08,1.03h0Z"/>
    <path class="st1" d="M366.36,572.7c.26,1.8-.26,3.34-1.54,4.11-1.8.26-3.85.26-4.62-1.8-.26-1.54,0-3.59,1.8-4.62,1.8,0,3.59.26,4.36,2.31h0Z"/>
    <path class="st1" d="M375.34,571.93c-.26,4.36-1.28,9.75-5.65,12.32-2.57.51-4.88,2.82-7.44,1.28v-.77c3.34-4.88,9.24-8.47,13.09-12.83h0Z"/>
    <path class="st1" d="M632.49,575.52c.51,1.03-.51,1.8-1.03,2.57-1.03,1.03-2.57.51-3.85.26-1.03-.51-1.28-2.05-.77-3.08.26-1.03,1.28-1.28,2.05-1.8,1.54-.26,2.82,1.03,3.59,2.05h0Z"/>
    <path class="st1" d="M390.74,582.7c2.05,3.59,1.03,8.47,2.05,12.32-2.57.26-3.85-2.57-5.39-4.11-3.34-4.62-2.82-11.04-4.62-16.43.26-.51.77-.51,1.03-.26,2.31,1.54,4.11,4.62,5.9,6.67,0,.77,1.28.77,1.03,1.8h0Z"/>
    <path class="st1" d="M640.19,576.8c0,1.28-1.28,1.54-2.05,2.31-1.03-.26-2.05-.51-2.82-1.28-.51-1.54.77-2.05,1.54-2.82,1.28-.77,2.82,0,3.34,1.8h0Z"/>
    <path class="st1" d="M658.67,590.66c0,.51-.26,1.28-1.03,1.03h-.51c-4.62-4.11-8.98-8.73-8.47-14.89l1.03-.26c4.36,3.85,8.98,7.7,8.98,14.12h0Z"/>
    <path class="st1" d="M647.12,585.78c.26,1.28-.51,2.31-1.28,3.08-1.8.51-4.36.26-4.62-2.05-.26-1.54,1.54-2.31,2.31-3.08,1.8-.77,3.08.51,3.59,2.05h0Z"/>
    <path class="st1" d="M636.86,589.12c-2.05,5.9-7.96,8.73-12.06,13.09-.77-.51-.51-1.8-.26-2.31,1.54-5.9,6.16-11.81,12.06-14.12,2.31.26-.26,2.05.26,3.34h0Z"/>
    <path class="st1" d="M648.41,593.74c0,1.28-1.28,2.05-2.05,2.82-1.28-.26-2.57-.51-3.34-1.8-.26-1.54,1.03-2.05,2.05-2.82,1.54-.26,2.82.51,3.34,1.8h0Z"/>
    <path class="st1" d="M532.92,309.89c2.05,0,3.85,1.8,3.85,3.85s-1.8,3.85-3.85,3.85h-45.94c-2.05,0-3.85-1.8-3.85-3.85s1.8-3.85,3.85-3.85h45.94ZM500.32,316.57c4.62,0,.26-5.39-2.05-5.39h-4.62c-4.62,0-.26,5.39,2.05,5.39h4.62ZM519.31,316.57c4.62,0,.26-5.39-2.05-5.39h-4.62c-4.62,0-.26,5.39,2.05,5.39h4.62ZM533.17,310.92h-1.8c-4.62,0-.77,5.39,1.8,5.39,3.08.26,3.34-5.39,0-5.39h0Z"/>
    <path class="st1" d="M528.81,362.51l8.73,3.34,8.73-3.34-3.34,12.83,6.93-1.54-2.31,7.96,2.31,7.44-6.16-1.54,2.57,13.86-8.73-3.34-8.73,3.34,3.59-13.86-6.93,2.05,1.8-7.96-1.8-7.44,6.67,1.03-3.34-12.83h0ZM541.9,385.86c2.05,0,2.05-2.82,2.05-5.13,0-5.39-4.11,0-6.42-5.13-1.54,4.36-5.9.26-5.9,4.88,0,3.08,0,5.13,3.08,5.13h7.19v.26ZM533.17,381.24c0,2.05,2.82.77,4.88.77s4.88,1.28,4.88-.77c0-2.82-2.82-1.8-4.88-1.8-2.05-.26-4.88-1.28-4.88,1.8h0Z"/>
    <polygon class="st1" points="508.28 381.75 508.28 379.96 507 379.7 508.02 378.42 507.25 377.13 508.79 377.39 509.82 375.85 510.59 377.39 512.13 377.13 511.36 378.42 512.64 379.7 511.1 379.96 511.1 381.75 509.82 380.73 508.28 381.75"/>
    <polygon class="st1" points="501.61 390.48 501.61 388.94 500.07 388.43 501.09 387.4 500.58 386.12 502.12 386.12 502.89 384.58 503.92 386.12 505.46 386.12 504.69 387.4 505.71 388.43 504.43 388.94 504.43 390.48 502.89 389.45 501.61 390.48"/>
    <polygon class="st1" points="513.15 389.45 513.15 387.66 511.62 387.4 512.9 386.12 512.13 384.83 513.67 385.09 514.44 383.55 515.46 385.09 517 384.83 516.23 386.12 517.26 387.4 515.98 387.66 515.98 389.45 514.44 388.17 513.15 389.45"/>
    <polygon class="st1" points="514.44 395.87 514.44 395.1 513.67 394.84 514.18 394.07 513.92 393.3 514.69 393.56 515.21 392.53 515.72 393.56 516.75 393.3 516.23 394.07 516.75 394.84 515.98 395.1 515.98 395.87 515.21 395.36 514.44 395.87"/>
    <polygon class="st1" points="503.66 403.31 503.66 400.49 501.09 400.23 503.15 398.18 501.86 395.87 504.43 396.13 505.97 393.3 507.51 396.13 510.33 395.87 509.05 398.18 511.1 400.23 508.54 400.49 508.54 403.31 505.97 401.52 503.66 403.31"/>
    <polygon class="st1" points="509.31 256 514.69 269.35 528.55 265.24 521.37 278.07 533.17 286.28 519.06 288.59 519.83 303.22 509.31 293.47 498.53 303.22 499.3 288.59 485.18 286.28 496.99 278.07 489.8 265.24 503.66 269.35 509.31 256"/>
    <path class="st1" d="M459,557.55c-1.54.51-2.31,1.03-1.8,2.82l2.05,8.21c.26,1.54.51,3.85-.51,5.39-1.28,1.8-3.85,2.82-5.65,3.34-1.28.26-4.36.77-6.67,0-1.54-.77-2.57-1.28-3.34-4.11l-2.05-8.73c-.51-2.05-1.28-2.05-3.08-1.8l-.26-.77,10.52-2.57.26.77c-2.05.51-3.08.77-2.31,3.08l2.05,8.73c.26,1.54,1.28,5.13,5.65,3.85,5.39-1.28,4.62-5.39,4.11-6.93l-1.8-7.96c-.26-1.54-1.03-2.31-3.59-1.8l-.26-.77,6.67-1.54v.77h0Z"/>
    <path class="st1" d="M474.4,559.09c-1.03-1.8-3.34-4.36-7.19-3.34-1.54.26-3.08,1.54-2.82,3.08.26,1.28,1.03,1.8,3.85,2.31l4.88.77c1.03.26,3.85,1.28,4.36,4.11.51,2.31-.77,5.9-6.42,7.19-2.82.77-4.62,0-5.39.26s-.77.77-.77,1.03l-1.03.26-1.28-6.42.77-.26c1.28,2.57,3.59,5.13,7.44,4.11,3.59-.77,3.34-3.34,3.34-3.85-.26-1.8-2.05-2.05-4.11-2.31l-2.31-.26c-5.65-1.03-6.16-3.08-6.42-4.36-.26-1.54-.26-5.39,5.65-6.67,2.57-.51,4.11,0,5.13-.26.77-.26.77-.51.77-1.03l1.03-.26,1.28,5.65-.77.26h0Z"/>
    <path class="st1" d="M494.93,569.36l-11.29,1.03v-.77c2.31-.26,3.08-.51,2.82-2.82l-1.28-13.86c-2.31.26-5.39.77-5.65,5.13h-1.03l-.51-5.39,18.99-1.8.51,5.39h-1.03c-1.03-4.11-4.36-4.11-6.42-3.85l1.28,13.86c.26,2.31,1.03,2.31,3.34,2.05l.26,1.03h0Z"/>
    <path class="st1" d="M521.37,569.36h-6.42l-6.42-8.47h-.77v5.13c0,2.05.77,2.31,2.82,2.57v.77l-10.78-.26v-.77c2.05-.26,2.82-.26,2.82-2.31l.26-11.81c0-2.31-1.03-2.31-2.82-2.57v-.77l10.27.26c2.31,0,8.98.51,8.73,4.88,0,3.34-3.34,4.11-5.13,4.36l6.16,7.7c.51.51,1.03.51,1.28.51v.77h0ZM507.51,560.12c4.11,0,5.9-.51,5.9-3.85,0-2.57-1.28-3.85-3.85-3.85-1.8,0-1.8.26-2.05,1.03v6.67h0Z"/>
    <path class="st1" d="M542.16,572.18l-10.27-1.28v-.77c2.05,0,2.57.26,2.57-.77,0-.77-.77-2.82-1.03-3.59l-7.19-.77c-1.03,1.8-1.8,2.82-1.8,3.34,0,1.03,1.28,1.28,2.31,1.54v.77l-6.42-.77v-.77c1.8,0,2.31-.77,3.34-2.82l8.73-13.6h.77l5.39,14.63c1.03,3.08,1.54,3.85,3.08,4.11l.51.77h0ZM533.43,564.74l-2.31-6.93-3.85,6.16,6.16.77h0Z"/>
    <path class="st1" d="M560.63,575.78l-17.96-3.34v-.77c1.8.26,2.82.26,3.08-1.28l2.31-12.58c.26-1.8-1.03-2.05-2.31-2.31v-.77l10.78,2.05v.77c-2.31-.26-3.08-.51-3.59,1.8l-2.31,12.32c-.26,1.28.51,1.54,2.57,2.05,4.62.77,6.93-1.03,8.73-3.59l1.03.26-2.31,5.39h0Z"/>
    <path class="st1" d="M572.44,578.6l-10.78-2.31.26-.77c1.8.26,2.82.26,3.34-1.28l2.57-12.58c.26-1.8-1.03-2.05-2.57-2.57l.26-.77,10.78,2.31-.26.77c-1.54-.26-3.08-.51-3.34,1.28l-2.57,12.58c-.26,1.54.77,2.05,2.57,2.57l-.26.77h0Z"/>
    <path class="st1" d="M594.51,581.42l-10.27-1.03v-.77c2.05,0,2.57,0,2.57-.77s-.77-2.82-1.03-3.59l-7.19-.77c-1.03,1.8-1.8,2.82-1.8,3.34,0,1.03,1.28,1.28,2.57,1.28v.77l-6.42-.77v-.77c1.8,0,2.31-.77,3.34-2.82l8.47-13.86h.77l5.65,14.63c1.03,3.08,1.54,3.85,3.08,4.11l.26,1.03h0ZM585.53,574.24l-2.57-6.67-3.59,6.16,6.16.51h0Z"/>
    <path class="st1" d="M513.67,366.87c0-6.42-3.59-.51-5.65-5.9-1.54,4.62-5.65.77-5.65,5.65,0,1.8.51,3.08,1.28,3.59v2.05c0,.51.51.77.77.77h6.67c.51,0,.77-.51.77-.77v-2.05c1.03-.77,1.8-1.8,1.8-3.34h0ZM508.02,368.15c-1.8,0-4.36,1.28-4.36-1.03,0-3.08,2.05-2.31,4.11-2.31,1.8,0,4.88-.77,4.88,2.31-.26,2.31-2.82,1.03-4.62,1.03h0Z"/>
    <path class="st1" d="M569.1,445.14c1.54,0,2.82-1.03,2.82-2.57s-1.28-2.57-2.82-2.57-2.82,1.28-2.82,2.57c0,1.54,1.28,2.57,2.82,2.57h0Z"/>
    <path class="st1" d="M555.24,350.7s-1.28,2.31-1.28,2.82c0,.77.51,1.54,1.28,1.54s1.28-.77,1.28-1.54c.26-.26-1.28-2.82-1.28-2.82h0Z"/>
    <path class="st1" d="M461.57,350.7s-1.28,2.31-1.28,2.82c0,.77.51,1.54,1.28,1.54s1.28-.77,1.28-1.54c.26-.26-1.28-2.82-1.28-2.82h0Z"/>
    <path class="st1" d="M484.92,350.7s-1.28,2.31-1.28,2.82c0,.77.51,1.54,1.28,1.54s1.28-.77,1.28-1.54c.26-.26-1.28-2.82-1.28-2.82h0Z"/>
    <path class="st1" d="M508.54,350.7s-1.28,2.31-1.28,2.82c0,.77.51,1.54,1.28,1.54s1.28-.77,1.28-1.54c0-.26-1.28-2.82-1.28-2.82h0Z"/>
    <path class="st1" d="M531.89,350.7s-1.28,2.31-1.28,2.82c0,.77.51,1.54,1.28,1.54s1.28-.77,1.28-1.54c.26-.26-1.28-2.82-1.28-2.82h0Z"/>
    <path class="st1" d="M461.57,382.78s1.28,2.31,1.28,2.82c0,.77-.51,1.54-1.28,1.54s-1.28-.77-1.28-1.54l1.28-2.82h0Z"/>
    <path class="st1" d="M461.57,414.09s1.28,2.31,1.28,2.82c0,.77-.51,1.54-1.28,1.54s-1.28-.77-1.28-1.54l1.28-2.82h0Z"/>
    <path class="st1" d="M465.42,438.99s1.28,2.31,1.28,2.82c0,.77-.51,1.54-1.28,1.54s-1.28-.77-1.28-1.54c-.26-.26,1.28-2.82,1.28-2.82h0Z"/>
    <path class="st1" d="M484.92,452.07s1.28,2.31,1.28,2.82c0,.77-.51,1.54-1.28,1.54s-1.28-.77-1.28-1.54l1.28-2.82h0Z"/>
    <path class="st1" d="M556.53,382.78s-1.28,2.31-1.28,2.82c0,.77.51,1.54,1.28,1.54s1.28-.77,1.28-1.54c.26,0-1.28-2.82-1.28-2.82h0Z"/>
    <path class="st1" d="M556.53,414.09s-1.28,2.31-1.28,2.82c0,.77.51,1.54,1.28,1.54s1.28-.77,1.28-1.54c.26,0-1.28-2.82-1.28-2.82h0Z"/>
    <path class="st1" d="M552.68,438.99s-1.28,2.31-1.28,2.82c0,.77.51,1.54,1.28,1.54s1.28-.77,1.28-1.54c.26-.26-1.28-2.82-1.28-2.82h0Z"/>
    <path class="st1" d="M533.17,452.07s-1.28,2.31-1.28,2.82c0,.77.51,1.54,1.28,1.54s1.28-.77,1.28-1.54l-1.28-2.82h0Z"/>
    <path class="st1" d="M509.31,465.93s-1.28,2.31-1.28,2.82c0,.77.51,1.54,1.28,1.54s1.28-.77,1.28-1.54l-1.28-2.82h0Z"/>
    <path class="st1" d="M547.29,419.48c.26.51,1.03.51,2.05.26l.77-2.57c0-.26-1.03-1.28-1.8-1.03-2.57.51-5.13.77-6.67,3.34,0,1.54,1.28,3.08,2.31,3.85.77-.26,1.03.51,1.54,1.03.26.77-.26,1.28-1.03,1.28-1.8-1.8-4.88.51-6.16-1.54.51-2.31,1.8-4.88-.26-6.93.26-.51.77-.77.51-1.28-.77-2.05-2.82-.51-4.36-.51-2.31-.26-4.11.77-5.39,2.57.26.77.51,1.54,1.28,2.31.51-.26.77,0,1.03.51l-1.54.77c.51.51.51,1.03.51,1.54-1.03.51-2.05-1.03-2.57-1.8,0-1.28.26-3.34-1.54-3.59-.26,0-1.28.51-1.28.51-.26.51-.51,1.28-.51,2.57,0,1.03.51,2.57.51,2.57,0,0,4.62,3.34,5.65,5.39-1.28,2.57-1.28,6.42-4.36,7.96-.77.51-.77,1.54-.77,2.31l.77.51c1.8-1.03,5.65-1.28,5.39-4.62.77-1.28,1.54-2.82,2.82-3.85,1.54-.26,2.82.51,3.34,1.54-.51,2.31-1.8,3.59-4.11,4.36-.26.26-.26.77-.26,1.28.51,1.03,2.31.51,3.08.51,2.57-1.54,3.59-4.62,5.65-5.39.26,1.54-2.82,2.05-.77,3.34,1.28-.26,3.08.26,4.11-1.54-1.03-2.57,3.59-3.59.77-5.9,0-2.31,2.31-3.08,2.31-5.39-.77-2.31-3.59-2.31-4.36-4.62,1.28-.51,2.57-.26,3.34.26h0Z"/>
    <path class="st1" d="M439.5,446.43c1.54,0,2.82-1.28,2.82-2.57,0-1.54-1.28-2.57-2.82-2.57s-2.82,1.03-2.82,2.57c0,1.28,1.28,2.57,2.82,2.57h0Z"/>
    <path class="st1" d="M287.57,535.23c1.54,0,2.82-1.28,2.82-2.82s-1.28-2.82-2.82-2.82-2.82,1.28-2.82,2.82,1.28,2.82,2.82,2.82h0Z"/>
    <path class="st1" d="M384.32,556.78h0l-.26-.26h0v.26h-.26v-.26h.26s.26,0,.26.26c0-.26-.26-.26,0,0h0ZM383.81,556.53q.26,0,0,0,.26-.26,0,0,0-.26,0,0h0Z"/>
    <path class="st1" d="M384.83,556.53q-.26-.26,0,0c-.26-.26-.26,0-.26,0-.26,0,0,0,.26,0h0c-.26,0,0,0,0,0q0,.26-.26.26h-.26v-.26h0s0,.26.26.26h0s0-.26.26-.26h-.26q-.26-.26.26,0-.26-.26,0,0,0-.26,0,0h0Z"/>
    <path class="st1" d="M385.6,556.27h0l-.26.51h0l-.26-.26h0l-.26.26h0l-.26-.51h.26v.26h0v-.26h.26v.26h0l.51-.26h0Z"/>
    <path class="st1" d="M385.6,556.78q.26,0,0,0,.26-.26,0,0,.26-.26,0,0v-.26s0-.26.26-.26c0,0,.26,0,.26.26,0,0,0,.26-.51.26h0ZM385.86,556.53h0v-.26.26h0Z"/>
    <path class="st1" d="M386.37,556.53h0q.26,0,.26.26s0,.26-.26.26h-.26q0-.26.26-.51,0,.26.26.26-.26,0-.26-.26h0l.26-.26h0l-.26.26h0Z"/>
    <path class="st1" d="M563.2,347.11h-108.3v82.64c0,8.47,3.59,15.91,8.47,17.96l41.58,26.43c1.03,1.03,2.31,1.8,3.85,1.8,1.28,0,2.57-.51,3.34-1.28l42.35-26.69c4.88-2.31,8.47-9.75,8.47-17.96l.26-82.9h0ZM560.12,430.77c-.51,6.16-2.57,11.55-6.93,14.37l-40.81,25.92h-.26c-.77.77-2.05,1.03-3.08,1.03-1.28,0-2.31-.51-3.08-1.03l-40.81-25.92c-4.36-2.82-6.42-8.21-6.93-14.37v-80.84h102.14v80.84h-.26Z"/>
    <path class="st1" d="M523.68,467.47l1.28-.51c-.51,0-1.03.26-1.28.51h0Z"/>
    <path class="st1" d="M442.07,580.65l-10.27,1.28v-.77c2.05-.26,2.57-.51,2.31-1.28,0-.77-1.28-2.57-1.8-3.34l-7.19.77c-.77,2.05-1.03,3.08-1.03,3.59,0,1.03,1.54,1.03,2.82.77v.77l-6.42.77v-.77c1.8-.51,2.05-1.28,2.82-3.34l5.39-15.4h.77l8.73,13.09c1.8,2.57,2.31,3.59,3.85,3.34v.51h0ZM431.8,575.52l-3.85-6.16-2.31,6.67,6.16-.51h0Z"/>
    <path class="st1" d="M621.2,541.9c-1.8-4.88-5.65-8.21-10.52-9.75-4.88-1.03-10.27-.26-13.6,3.34-5.65,4.62-1.8,12.06-1.54,18.22,0,1.28.26,2.31-1.03,2.82-22.58-2.05-43.37-7.7-65.96-10.01-5.13-.77-10.27-.77-15.14-1.8l-6.16-.77c-19.5.51-38.75,1.8-56.97,6.42-3.85,1.28-8.21,1.54-12.06,3.08-2.82-.51-5.13,1.54-7.7.77l-5.13,1.28h-1.8c-2.57-6.42,4.88-10.27,2.57-16.68-2.05-3.59-6.16-6.93-10.78-6.42-5.39-.51-10.01,2.31-12.32,6.42-3.59,7.7,1.03,15.91,2.31,23.61-.26,2.57,2.57,5.39,0,7.44-4.88-3.34-11.55-5.39-17.45-3.59-1.8,1.03-5.39-.26-6.16,1.8,6.67,3.59,15.14,3.08,22.58,2.82,1.03-.26,1.54-.51,2.31.26.51,4.11-.77,9.5,1.8,13.09,2.82,3.85,7.44,4.62,12.06,5.13,14.37-.51,26.95-4.62,40.04-7.96,2.05-.26,3.59-1.28,5.65-1.28,6.93-1.54,14.63-2.82,22.07-3.08-3.34,4.11-5.13,8.98-6.42,14.12-1.8,4.11,3.34,4.88,4.88,7.19-4.88,1.28-8.21,4.62-12.83,6.67-10.01-.26-18.22,3.34-27.72,4.62-.26,2.05,3.34,1.28,3.59,3.34-.51,1.28-1.8,1.54-2.82,2.31-.26,1.03,0,1.03,1.03,1.28,1.03-1.03,2.82-.26,3.85-1.28,3.08,0,5.65-1.03,8.73-1.03,2.57-1.03,5.65-1.28,7.96-3.08,3.34-1.03,5.39-3.08,8.47-4.11,4.62,0,8.73-1.54,13.09-1.8v1.03c-3.59,5.9-7.19,11.81-11.04,17.19-.51,1.03.26,2.31,1.03,2.57,2.05.51,4.36,0,6.16-1.03,3.34-5.65,6.16-11.04,8.73-16.68,1.03-5.39,4.88-8.21,8.73-11.81.51-.26,1.54-1.28,2.05-.26-3.08,3.59-5.13,6.93-7.44,11.04-1.28,4.36-1.54,10.01,2.31,13.6,1.8,1.54,4.62,1.03,7.19,1.28,6.16-3.08,13.86,1.8,18.48-4.11,2.82-.51,3.34,2.82,4.88,4.36,2.57.77,5.39,3.34,7.96,1.54-.26-1.8-2.05-3.34-2.82-4.88-1.8-3.34-4.11-5.9-5.9-8.98-.77-2.31-2.05-3.59-2.57-5.9,2.82,1.03,5.39,2.82,8.47,3.34,2.57,1.03,5.9,1.03,8.47,2.57,2.05,2.57,5.13,4.11,7.7,5.9,3.85,1.8,8.21,2.31,12.32,3.85,1.54.26,3.85,1.28,4.88,0-.51-.77-1.28-1.28-2.31-1.8-.51-2.05,2.82-1.03,3.85-2.57-.26-.77-1.03-1.03-1.8-1.28-2.31-1.28-7.7-1.54-9.24-2.31-1.8-.26-3.59-1.03-5.39-1.8-9.24,0-14.37-8.47-21.81-11.55,1.8-1.54,4.36-2.82,5.39-5.13,1.28-2.31,1.8-5.9.51-8.21-1.28-4.88-7.7-4.11-11.29-6.93l.51-.51c6.16-.26,11.29,1.03,16.68,2.31,14.89,2.05,28.74,7.7,44.14,7.96,8.47,0,19.25.51,23.35-7.7.77-4.88,1.8-9.75,2.57-14.63,2.05-8.21,7.19-15.4,6.42-23.87h0ZM453.61,612.99l-2.31-2.05c1.03-1.28,3.34-.51,5.13-1.54,4.11-1.28,8.73-2.82,13.09-1.8-4.62,3.85-10.52,4.11-15.91,5.39h0ZM550.37,610.68c3.59,1.8,11.29,3.34,16.68,3.85-.51,2.05-4.36.26-3.85,3.08-4.88-1.8-10.52-2.82-13.86-6.67.26,0,.51-.51,1.03-.26h0ZM404.85,544.21c.51-2.82,1.03-5.9,3.59-7.7,3.85-2.05,8.98-1.54,12.32.51,1.03.51,1.8,1.54,2.57,3.08.77,2.57-.51,5.39-2.31,6.93h-1.54c0-2.57,0-5.13,1.03-6.93-.26-1.8-1.8-2.05-2.82-2.82-2.57-.77-4.88.51-6.93,1.54-1.54,1.8-2.82,4.11-2.05,6.93,1.03,1.8.26,4.11.77,5.9l-.51.51c-2.31-2.31-4.62-4.36-4.11-7.96h0ZM412.04,548.57c2.31,1.8,5.65,1.03,8.47,1.28.51,1.8.51,3.85-.77,5.39-2.57-.51-6.16-.26-7.44-2.82.26-1.03-.51-2.57-.26-3.85h0ZM411.52,543.44c.51-1.28,0-3.08,1.8-3.34,1.03-.26,2.82-.26,2.82,1.03-.26,1.8-.26,3.85-.77,5.39-2.05,0-3.08-1.28-3.85-3.08h0ZM484.41,593.48c-.77-5.39,1.28-10.27,4.88-14.12,2.05-.51,4.62-1.03,6.67.26-4.11,1.03-9.24,2.05-10.01,7.19.26,2.05-.51,3.08.51,4.88,1.8,3.08,5.65,1.8,7.7,4.11,0,.77-.51,1.8-1.28,1.8-2.82-1.28-5.9-2.05-8.47-4.11h0ZM478.76,604.26c3.85-1.54,7.7-4.88,11.81-3.34-2.82,2.31-7.7,3.34-11.81,3.34h0ZM493.65,605.8c-2.05,4.88-4.62,9.75-7.7,14.63-.26.77-1.54,1.03-2.57,1.03,0-2.31,2.05-3.85,3.08-5.9,3.34-4.11,4.11-8.73,7.96-12.83,1.03,1.28-.77,1.8-.77,3.08h0ZM497.5,596.82v.51h-.26v-.77h.51c-.26,0-.51,0-.51.26h.26ZM495.96,592.71c-2.57-.26-5.13-1.03-7.44-1.8-1.54-1.54,0-3.34,0-5.13,2.05-3.34,8.47-5.13,11.29-2.05-.26,3.34-1.54,6.42-3.85,8.98h0ZM499.55,592.71c.51-2.05,1.28-4.62,2.57-6.67-.26,2.05-1.28,4.88-2.57,6.67h0ZM501.09,579.88c-2.05-.51-3.08-2.82-5.39-2.82,1.8-.51,3.59-.51,5.9-.26,1.03,1.28-.26,2.31-.51,3.08h0ZM503.15,584.5h0l-.26-1.8h.26v1.8h0ZM503.15,591.69c-.26-.51.26-1.28.51-2.31.77-.77,1.54.51,1.8,1.03-.51,1.03-1.28,1.54-2.31,1.28h0ZM505.46,582.19c.77-2.31,1.03-4.11,2.31-5.9,1.54,0,2.82,0,4.11.51.26,3.08,4.11,7.44,0,10.01-1.28.51-3.34,2.05-4.88.51-2.05-1.54-2.31-3.08-1.54-5.13h0ZM516.75,577.83c-.26-1.28,1.28-.26,2.05-1.03l4.88.26c-2.57-.26-5.65,5.65-6.93.77h0ZM524.7,579.88c-1.8.51-3.34,2.82-5.13,3.34.77-1.8,3.08-3.59,5.13-3.34h0ZM518.03,589.38v.51h0v-.51h0ZM518.29,599.13c-.26.26.26.77-.26,1.03l-3.59-2.82c1.8-.26,3.08.51,3.85,1.8h0ZM514.18,594.25c.26-.26,1.03-.26,1.28,0h-1.28ZM512.13,591.69c.51-1.03,1.28-2.31,2.57-2.31,0,.26.26.26.26.51-1.03.77-1.8,1.54-2.82,1.8h0ZM508.54,591.43h-.77l1.03-1.03c.51.51-.26.77-.26,1.03h0ZM509.05,597.33c2.05-2.31,3.85,1.28,4.62,3.08,2.31,3.34,8.47,6.67,6.16,11.29-3.08,2.57-7.7.26-10.78,2.31-1.8-.26-4.62.26-5.65-1.28,1.54-5.39,3.08-11.04,5.65-15.4h0ZM504.69,600.41l.77-1.28c-1.28,3.85-3.08,7.7-5.13,11.29-1.03-3.85,2.82-6.67,4.36-10.01h0ZM511.36,619.15c-2.82.26-7.44,1.8-10.27-.51.26-1.28-1.28-1.8-1.03-3.08,2.57-1.03,4.62,2.05,6.93-.26,3.59.26,7.19-.51,10.78.26,1.8.51,4.36-2.82,4.62.51-1.03,4.88-7.19,1.28-11.04,3.08h0ZM520.34,596.56v-.51h.26v.51h-.26ZM521.37,606.32c.26,1.54,1.8,2.31.77,3.59-.26-.51-1.28-2.05-.77-3.59h0ZM525.73,615.81l-.77.26c-.77-.51-.51-2.31-.26-3.34.77.77,1.54,1.8,1.03,3.08h0ZM533.43,619.4c-.26.51-1.03.51-1.28.26-4.62-5.9-6.93-12.32-9.75-18.73l.51-.26c3.85,6.16,6.93,12.83,10.52,18.73h0ZM539.08,605.03c-.26.26-.26.51-.26.51-4.62.26-7.44-2.57-10.78-4.88l-.26-.77c4.36.51,7.7,3.08,11.29,5.13h0ZM535.23,584.24c1.8.51,2.05,2.57,2.05,4.11-.26,3.34-2.05,6.42-5.39,7.7-1.8,1.03-4.36,1.28-6.16.51,3.85-.26,7.7-1.54,9.24-5.39l.26-6.93h0ZM531.63,583.73c.77,2.31,2.05,4.11,1.28,6.93-1.54,3.08-4.62,3.08-7.44,3.59-1.28.26-2.57-.26-3.59-1.03.26-.51-.26-1.03-.51-1.54.51-2.05-3.59-4.11-.77-5.9,2.57-2.31,8.47-7.7,11.04-2.05h0ZM610.68,572.18c-1.28,1.54-.26,4.11-1.8,5.39,0,2.82-2.31,4.11-4.36,5.39-18.48,4.11-36.7-2.31-54.41-5.39-24.89-5.39-54.15-6.93-79.56-1.28-12.06,2.31-23.61,4.88-35.16,8.21-7.19,1.03-14.89,2.05-21.81-.26-5.65-2.57-3.34-9.75-4.88-14.89.26-3.85-1.03-6.93-1.28-10.78-.51-1.28-.77-2.82-.51-4.11,2.31.26,4.62,2.05,7.19,2.57,13.09,2.57,24.64-1.8,36.7-3.85,11.55-2.57,23.61-4.62,35.93-5.39,13.86-.26,28.23-1.03,41.58,1.28,4.36.26,7.96,1.28,12.32,1.54,8.73,1.03,16.68,3.34,25.66,4.11,1.28.51,3.08.51,4.62.77,13.86,2.31,29.77,6.16,43.12,0-.26,6.16-2.57,11.29-3.34,16.68h0ZM606.32,553.19c.26,2.57-2.05,1.8-3.34,2.82h-3.85c-.77-1.28-.51-3.08-.51-4.36,2.57.51,5.39.51,7.7,1.54h0ZM604.52,549.34c1.8-1.8-.51-11.55,4.36-5.13,0,1.28.26,3.08-1.03,4.11-.77.51-2.05,1.8-3.34,1.03h0ZM617.09,547.8c-1.28,2.82-3.59,4.88-6.67,5.39.26-3.85,3.59-6.42,2.31-10.52-2.05-3.08-6.16-3.85-9.75-3.08-1.28,1.03-.77,2.57-1.28,3.85l-.51,5.13c-3.08,0-3.34-2.82-4.11-4.88.26-3.34,1.54-6.67,4.88-8.21,2.57-1.28,6.42-1.03,8.98.26,2.05.51,4.36,1.28,5.13,3.34,2.05,1.8,1.54,5.9,1.03,8.73h0Z"/>
  </g>
</svg>