<?xml version="1.0" encoding="UTF-8" standalone="no"?>
<svg
   id="Layer_1"
   version="1.1"
   viewBox="0 0 1024 1024"
   sodipodi:docname="EBay.svg"
   inkscape:version="1.4.3 (0d15f75042, 2025-12-25)"
   xmlns:inkscape="http://www.inkscape.org/namespaces/inkscape"
   xmlns:sodipodi="http://sodipodi.sourceforge.net/DTD/sodipodi-0.dtd"
   xmlns="http://www.w3.org/2000/svg"
   xmlns:svg="http://www.w3.org/2000/svg">
  <sodipodi:namedview
     id="namedview8"
     pagecolor="#ffffff"
     bordercolor="#000000"
     borderopacity="0.25"
     inkscape:showpageshadow="2"
     inkscape:pageopacity="0.0"
     inkscape:pagecheckerboard="0"
     inkscape:deskcolor="#d1d1d1"
     inkscape:zoom="0.78125"
     inkscape:cx="512"
     inkscape:cy="512"
     inkscape:window-width="1920"
     inkscape:window-height="1008"
     inkscape:window-x="0"
     inkscape:window-y="0"
     inkscape:window-maximized="1"
     inkscape:current-layer="Layer_1" />
  <!-- Generator: Adobe Illustrator 30.2.1, SVG Export Plug-In . SVG Version: 2.1.1 Build 1)  -->
  <defs
     id="defs1">
    <style
       id="style1">
      .st0 {
        fill: #0064d2;
      }

      .st1 {
        fill: #fff;
      }

      .st2 {
        fill: #86b817;
      }

      .st3 {
        fill: #e53238;
      }

      .st4 {
        fill: #f5af02;
      }
    </style>
  </defs>
  <circle
     cx="512"
     cy="512"
     r="511.46"
     id="circle4" />
  <g
     id="g8">
    <path
       id="path5"
       class="st1"
       d="M614.2,521.34c-34.9,1.14-56.58,7.44-56.58,30.43,0,14.88,11.86,31.01,41.98,31.01,40.38,0,61.93-22.01,61.93-58.11v-3.97c-14.15,0-31.61.12-47.33.64h0ZM700.03,569.03c0,11.2.32,22.26,1.3,32.21h-35.8c-.95-8.2-1.3-16.34-1.3-24.24-19.36,23.79-42.38,30.63-74.31,30.63-47.37,0-72.73-25.04-72.73-54,0-41.94,34.5-56.73,94.38-58.1,16.38-.37,34.77-.43,49.98-.43v-4.1c0-28.08-18.01-39.62-49.21-39.62-23.16,0-40.23,9.59-41.99,26.15h-40.44c4.28-41.3,47.67-51.74,85.82-51.74,45.7,0,84.31,16.26,84.31,64.6v78.64h-.01Z" />
    <path
       id="path6"
       class="st1"
       d="M281.32,500.86c-1.49-36-27.48-49.47-55.25-49.47-29.95,0-53.86,15.15-58.05,49.47h113.3ZM167.19,526.45c2.08,34.93,26.17,55.59,59.29,55.59,22.95,0,43.36-9.35,50.2-29.69h39.69c-7.72,41.27-51.57,55.28-89.32,55.28-68.63,0-99.05-37.8-99.05-88.77,0-56.11,31.46-93.07,99.68-93.07,54.3,0,94.08,28.42,94.08,90.44v10.22h-154.57Z" />
    <path
       id="path7"
       class="st1"
       d="M420.48,581.31c35.77,0,60.24-25.74,60.24-64.6s-24.48-64.6-60.24-64.6-60.24,25.75-60.24,64.6,24.68,64.6,60.24,64.6h0ZM321.76,358.11h38.48v96.67c18.86-22.47,44.84-29,70.41-29,42.88,0,90.51,28.94,90.51,91.41,0,52.32-37.88,90.43-91.22,90.43-27.92,0-54.21-10.02-70.42-29.86,0,7.93-.44,15.92-1.31,23.47h-37.76c.66-12.22,1.31-27.43,1.31-39.74v-203.39h0Z" />
    <path
       id="path8"
       class="st1"
       d="M896,432.19l-119,233.7h-43.09l34.21-64.89-89.55-168.81h45.03l65.9,131.89,65.71-131.89h40.79Z" />
  </g>
</svg>
