<?xml version="1.0" encoding="UTF-8"?>
<svg id="Layer_1" xmlns="http://www.w3.org/2000/svg" version="1.1" viewBox="0 0 1024 1024">
  <!-- Generator: Adobe Illustrator 30.2.1, SVG Export Plug-In . SVG Version: 2.1.1 Build 1)  -->
  <defs>
    <style>
      .st0 {
        fill: #fff;
      }

      .st1 {
        fill: #005eb8;
      }
    </style>
  </defs>
  <circle id="Background__x28_CHANGE_THE_COLOR_x29_" class="st1" cx="512" cy="512" r="512"/>
  <g>
    <path class="st0" d="M185.15,378.11h89.43l54.82,185.76h.83l37.6-185.76h67.55l-56.82,267.87h-89.01l-56.07-185.34h-.75l-37.19,185.34h-67.55l57.15-267.87Z"/>
    <path class="st0" d="M461.75,378.11h71.79l-21.13,102.49h84.85l21.13-102.49h71.79l-55.65,267.87h-72.21l23.79-114.72h-84.44l-23.79,114.72h-71.71l55.57-267.87Z"/>
    <path class="st0" d="M878.95,438.75c-18.4-8.47-38.48-12.68-58.73-12.31-28.37,0-51.41,4.24-51.41,25.71,0,38.02,103.99,23.79,103.99,105.15,0,74.04-68.71,93.25-130.86,93.25-28.24-.66-56.25-5.31-83.19-13.81l16.64-54.49c14.23,9.23,42.59,15.39,65.97,15.39s57.15-4.24,57.15-31.86c0-43.01-103.99-26.87-103.99-102.49,0-69.05,60.64-89.84,119.38-89.84,33.28,0,64.06,3.49,82.11,11.9l-17.05,53.41Z"/>
  </g>
</svg>