<?xml version="1.0" encoding="UTF-8"?>
<svg id="Layer_1" xmlns="http://www.w3.org/2000/svg" version="1.1" viewBox="0 0 1024 1024">
  <!-- Generator: Adobe Illustrator 30.2.1, SVG Export Plug-In . SVG Version: 2.1.1 Build 1)  -->
  <defs>
    <style>
      .st0 {
        fill: #fff;
      }

      .st1 {
        fill: #850122;
      }
    </style>
  </defs>
  <circle id="Background__x28_CHANGE_THE_COLOR_x29_" class="st1" cx="512" cy="512" r="512"/>
  <g>
    <path class="st0" d="M296.5,261.12l87.67,88.57c2.05,2.05,4.1,2.56,7.18,2.56h369.66c2.56,0,4.1-3.07,1.54-5.63l-86.64-87.55c-2.05-2.05-4.1-3.07-8.2-3.07h-369.15c-3.59,0-4.1,3.07-2.05,5.12h0Z"/>
    <path class="st0" d="M283.69,763.9c-.51,2.05.51,4.1,3.08,4.1h364.54c3.59,0,5.13-1.53,6.15-4.61l110.23-355.32c1.03-3.58-.51-4.61-3.59-4.61h-365.56c-3.08,0-4.1,1.02-5.13,3.58l-109.72,356.86h0Z"/>
    <path class="st0" d="M256,661.5c0,4.1,5.13,4.1,6.15,0l83.57-271.87c1.03-3.07,1.03-5.12-1.54-7.68l-83.06-82.43c-2.05-2.05-5.13-1.02-5.13,1.54v360.44h.01Z"/>
  </g>
</svg>